<svg width="121" height="98" viewBox="0 0 121 98" fill="none" xmlns="http://www.w3.org/2000/svg">
<path d="M52.1625 30.3799C52.1625 30.3799 60.1762 22.9284 65.9374 23.0005C71.7059 23.0727 85.553 24.4576 94.9023 24.4432C103.624 24.4288 104.894 42.6644 94.2815 47.1945C84.5495 51.3494 66.3201 36.9225 62.8763 35.4365C59.4398 33.9505 53.8952 35.1624 53.8952 35.1624C53.8952 35.1624 51.2889 32.1977 52.1625 30.3727V30.3799Z" fill="#FFC727"/>
<path opacity="0.6" d="M52.1625 30.3799C52.1625 30.3799 60.1762 22.9284 65.9374 23.0005C71.7059 23.0727 85.553 24.4576 94.9023 24.4432C103.624 24.4288 104.894 42.6644 94.2815 47.1945C84.5495 51.3494 66.3201 36.9225 62.8763 35.4365C59.4398 33.9505 53.8952 35.1624 53.8952 35.1624C53.8952 35.1624 51.2889 32.1977 52.1625 30.3727V30.3799Z" fill="#1C1B1F"/>
<path d="M118.359 147.508L121.76 152.543C130.048 139.458 135.78 121.128 134.914 105.987C134.726 102.712 134.423 95.571 133.492 92.9164C132.517 90.132 129.608 86.6696 129.369 86.3954C129.514 86.6768 131.304 90.1464 131.925 93.4358C131.723 92.9453 131.506 92.4692 131.268 92.0003C123.695 76.6717 96.2314 71.0957 96.2314 71.0957C96.2314 71.0957 113.197 83.7337 119.962 106.254C122.352 114.203 122.381 122.953 121.644 130.34C121.933 126.776 121.421 121.359 121.384 121.02C121.348 121.655 120.46 138.606 119.486 143.194C119.45 143.367 119.413 143.512 119.377 143.641C119.349 143.75 119.327 143.851 119.312 143.937C118.757 146.195 118.345 147.508 118.345 147.508H118.359Z" fill="#FFC727"/>
<path opacity="0.3" d="M118.359 147.508L121.76 152.543C130.048 139.458 135.78 121.128 134.914 105.987C134.726 102.712 134.423 95.571 133.492 92.9164C132.517 90.132 129.608 86.6696 129.369 86.3954C129.514 86.6768 131.304 90.1464 131.925 93.4358C131.723 92.9453 131.506 92.4692 131.268 92.0003C123.695 76.6717 96.2314 71.0957 96.2314 71.0957C96.2314 71.0957 113.197 83.7337 119.962 106.254C122.352 114.203 122.381 122.953 121.644 130.34C121.933 126.776 121.421 121.359 121.384 121.02C121.348 121.655 120.46 138.606 119.486 143.194C119.45 143.367 119.413 143.512 119.377 143.641C119.349 143.75 119.327 143.851 119.312 143.937C118.757 146.195 118.345 147.508 118.345 147.508H118.359Z" fill="#1C1B1F"/>
<path d="M123.215 157.561C123.057 159.653 123.483 167.595 115.548 167.595H76.3099C71.2056 167.595 35.3099 138.142 29.2527 131.311C23.2027 124.48 17.8963 116.278 17.2754 109.707C15.42 90.1222 31.072 60.4172 31.072 60.4172C31.072 60.4172 18.1057 51.1912 13.7162 45.3122C9.32668 39.4332 10.3446 26.7664 11.4348 25.6555C12.5177 24.5446 34.292 34.4199 34.292 34.4199C34.292 34.4199 42.6883 28.6924 48.1174 27.192C53.5466 25.6916 72.0287 41.215 74.44 46.4231C76.8586 51.6312 74.5194 60.3018 71.7904 65.1492C69.0542 69.9966 65.2278 72.8532 65.2278 72.8532C65.0907 73.7909 64.9535 75.5438 65.4517 77.1668C66.1881 79.54 84.7063 104.975 88.0778 107.478C91.4566 109.988 110.162 116.819 114.263 123.845C118.371 130.864 124.024 146.546 123.208 157.575L123.215 157.561Z" fill="#FFC727"/>
<path opacity="0.2" d="M123.215 157.561C123.057 159.653 123.483 167.595 115.548 167.595H76.3099C71.2056 167.595 35.3099 138.142 29.2527 131.311C23.2027 124.48 17.8963 116.278 17.2754 109.707C15.42 90.1222 31.072 60.4172 31.072 60.4172C31.072 60.4172 18.1057 51.1912 13.7162 45.3122C9.32668 39.4332 10.3446 26.7664 11.4348 25.6555C12.5177 24.5446 34.292 34.4199 34.292 34.4199C34.292 34.4199 42.6883 28.6924 48.1174 27.192C53.5466 25.6916 72.0287 41.215 74.44 46.4231C76.8586 51.6312 74.5194 60.3018 71.7904 65.1492C69.0542 69.9966 65.2278 72.8532 65.2278 72.8532C65.0907 73.7909 64.9535 75.5438 65.4517 77.1668C66.1881 79.54 84.7063 104.975 88.0778 107.478C91.4566 109.988 110.162 116.819 114.263 123.845C118.371 130.864 124.024 146.546 123.208 157.575L123.215 157.561Z" fill="#1C1B1F"/>
<path opacity="0.2" d="M69.0619 92.0633C69.1991 95.2949 72.0219 100.496 75.083 101.542C77.3572 102.321 80.2811 101.664 81.7828 100.186C78.3607 95.8215 74.2816 90.2888 71.0473 85.7227C69.6394 86.7614 68.9536 89.6612 69.0619 92.0633Z" fill="#1C1B1F"/>
<path opacity="0.1" d="M30.8839 83.4548C30.3424 80.9157 30.0175 78.2756 30.3135 75.7797C30.3352 75.5777 30.0609 75.4623 29.9165 75.6138C29.5338 76.0322 28.4509 77.2008 28.2921 77.3811C28.2921 77.2296 28.3065 77.0709 28.3209 76.9195C28.3642 76.4001 28.4364 75.8807 28.5303 75.3686C28.718 74.337 28.9851 73.3271 29.3389 72.3389C29.6926 71.3579 30.1258 70.4057 30.6456 69.4968C31.1654 68.5807 31.7935 67.7295 32.3928 66.8495C32.4216 66.8134 32.3494 66.7629 32.3133 66.7918C31.4687 67.5203 30.7756 68.4076 30.1691 69.302C29.5699 70.1821 29.0645 71.1126 28.6458 72.0792C28.2199 73.0602 27.895 74.0774 27.6712 75.1161C27.5557 75.6571 27.469 76.2053 27.404 76.7535C27.3463 77.2801 27.2669 77.8356 27.404 78.3766C27.4907 78.73 28.0105 78.6795 28.1621 78.4271C28.2487 78.2756 29.6204 76.6021 29.8298 76.3568C29.7287 77.4316 29.6926 78.5064 29.8082 79.6173C29.9453 80.9085 30.2197 82.2069 30.6745 83.4837C30.7178 83.5991 30.8983 83.563 30.8767 83.4548H30.8839Z" fill="#1C1B1F"/>
<path opacity="0.1" d="M65.582 71.8652C65.9214 72.0023 66.6505 72.2764 67.6613 72.6371L65.582 71.8652Z" fill="#1C1B1F"/>
<path d="M28.9021 104.803C28.9021 104.803 15.3148 93.2474 11.409 85.5795C7.50325 77.9116 2.86107 64.884 1.46047 59.3874C1.05617 57.8076 -0.207255 37.5018 0.500263 36.2899C1.20778 35.078 5.81387 37.6677 8.26852 40.9859C9.59692 42.782 8.50678 52.6644 9.20708 55.0521C9.72689 56.8122 21.7764 70.9289 22.7005 71.8811C23.6318 72.8405 34.1796 78.5608 42.1933 81.8717" fill="#FFC727"/>
<g opacity="0.2">
<path d="M28.9021 104.803C28.9021 104.803 15.3148 93.2474 11.409 85.5795C7.50325 77.9116 2.86107 64.884 1.46047 59.3874C1.05617 57.8076 -0.207255 37.5018 0.500263 36.2899C1.20778 35.078 5.81387 37.6677 8.26852 40.9859C9.59692 42.782 8.50678 52.6644 9.20708 55.0521C9.72689 56.8122 21.7764 70.9289 22.7005 71.8811C23.6318 72.8405 34.1796 78.5608 42.1933 81.8717" fill="#1C1B1F"/>
</g>
<path d="M3.29212 41.5125C3.025 39.7669 1.96372 37.5307 0 37.3359C1.68938 38.1943 2.35358 39.9616 3.29212 41.5125Z" fill="#263238"/>
<path d="M5.9265 39.5521C5.17567 37.9002 3.45741 35.7434 1.42871 36.0824C3.39244 36.4792 4.54756 38.232 5.9265 39.5521Z" fill="#263238"/>
<path d="M17.7607 94.0547C21.0456 96.7453 23.7819 99.9409 26.7708 102.927C23.1466 100.72 20.302 97.4089 17.7607 94.0547Z" fill="#263238"/>
<path d="M34.0039 78.1278C30.3291 76.7789 26.7771 75.0116 23.6943 72.5879C27.2825 74.1604 30.7695 75.8989 34.0039 78.1278Z" fill="#263238"/>
<path d="M28.5762 75.1757C30.3233 74.9088 32.1426 75.2407 33.5793 76.301C31.8033 76.1856 30.2078 75.8971 28.5762 75.1757Z" fill="#263238"/>
<path d="M10.7426 24.561C9.7968 25.2751 10.1722 31.4426 11.7966 32.8059C13.421 34.1693 19.5649 31.1901 19.9836 29.5887C20.4024 27.9946 11.9482 23.6449 10.7498 24.561H10.7426Z" fill="#263238"/>
<path d="M12.1499 31.4004C12.3593 33.4851 12.3665 39.97 14.5613 40.6841C16.4744 41.2468 18.4815 39.9339 20.0626 38.9457C18.5537 40.1864 16.5033 41.6363 14.4241 41.052C11.8178 40.1719 12.0633 33.7087 12.1499 31.4004Z" fill="#263238"/>
<path d="M11.0176 36.3241C11.1836 37.0166 11.2631 37.9039 11.6168 38.4809C11.5663 38.4593 11.5229 38.4954 11.5374 38.4809C11.9778 36.4251 11.8334 34.2755 12.1583 32.1836C12.3099 33.6768 12.3099 35.1772 12.1944 36.6776C12.1077 37.3484 12.1222 38.0626 11.7901 38.6757C11.0465 39.3249 11.0248 36.7064 11.0176 36.3313V36.3241Z" fill="#263238"/>
<path opacity="0.2" d="M44.761 34.7455C50.1107 36.4695 51.4752 41.4396 49.923 46.2293C48.6668 50.1101 44.2195 53.046 39.0864 51.3941C33.9533 49.7423 32.2856 44.0581 33.4624 40.4153C34.6391 36.7725 38.9565 32.8772 44.761 34.7455Z" fill="#1C1B1F"/>
<path d="M39.5485 37.2789C42.588 37.7694 43.7359 40.3446 43.3027 43.0641C42.9489 45.2642 40.783 47.2262 37.8663 46.7574C34.9496 46.2885 33.5779 43.3526 33.91 41.2824C34.2421 39.2121 36.2564 36.7451 39.5485 37.2789Z" fill="#263238"/>
<path d="M39.1659 37.8067C42.0176 38.2684 43.1005 40.6849 42.689 43.2457C42.3569 45.3159 40.321 47.1626 37.5775 46.7153C34.8413 46.2753 33.5418 43.5198 33.8595 41.5721C34.1699 39.6245 36.0614 37.309 39.1659 37.8067Z" fill="#FAFAFA"/>
<path d="M38.2201 38.2249C40.552 38.6 41.4328 40.5765 41.1007 42.6612C40.8263 44.3491 39.1658 45.8567 36.9278 45.4961C34.6897 45.1354 33.6356 42.8848 33.8883 41.2978C34.141 39.7109 35.686 37.8137 38.2201 38.2249Z" fill="#263238"/>
<path d="M65.5479 73.0507C65.5479 73.0507 72.4859 66.3711 73.3594 66.0393C74.2258 65.7002 78.572 67.8715 78.9546 69.4512C79.3372 71.0238 65.5695 74.0606 65.5695 74.0606L65.5479 73.058V73.0507Z" fill="#455A64"/>
<path d="M68.0822 73.4543C67.88 73.5048 67.6923 73.5481 67.5118 73.5986C67.2086 73.0648 66.9126 72.5454 66.6094 72.0333C66.7393 71.9034 66.8765 71.7736 67.0281 71.6365C67.3819 72.228 67.7284 72.834 68.0822 73.4543ZM72.1685 70.807C71.6631 69.9341 71.1649 69.083 70.6668 68.2606C70.5224 68.3833 70.3852 68.5131 70.2408 68.6502C70.7245 69.4581 71.2083 70.2804 71.6992 71.1316C71.793 71.2903 71.8869 71.449 71.9807 71.6149C72.1179 71.8529 72.2551 72.091 72.385 72.3362C72.5727 72.2857 72.7605 72.2352 72.941 72.1847C72.7749 71.8818 72.6089 71.5932 72.4428 71.3047C72.3562 71.1316 72.2623 70.9729 72.1685 70.8142V70.807ZM76.4641 68.5203C76.363 68.3544 76.2764 68.1957 76.1825 68.037C75.8793 67.5104 75.5689 66.9911 75.2584 66.4789C74.9552 66.3491 74.6664 66.2409 74.4065 66.1543C74.8397 66.8684 75.2801 67.6042 75.7205 68.3616C75.8071 68.5203 75.9082 68.679 76.002 68.8377C76.3702 69.4725 76.7384 70.1217 77.1066 70.7853C77.2944 70.706 77.4676 70.6339 77.6265 70.5545C77.2438 69.862 76.854 69.1839 76.4713 68.5203H76.4641ZM77.0272 67.4383C76.7457 67.6403 76.4713 67.835 76.1825 68.037C76.0309 68.1452 75.8793 68.2534 75.7205 68.3616C74.5942 69.1479 73.4102 69.963 72.1685 70.807C72.0168 70.9152 71.858 71.0162 71.6992 71.1244C70.5874 71.8746 69.4178 72.6464 68.2266 73.4183C68.7319 73.2956 69.2951 73.1586 69.8798 73.0071C70.5946 72.5382 71.2949 72.0693 71.9807 71.6077C72.1324 71.4995 72.2912 71.3985 72.4428 71.2903C73.6918 70.4463 74.883 69.624 76.002 68.8377C76.1609 68.7367 76.3125 68.6213 76.4641 68.5131C76.8251 68.2606 77.1788 68.0082 77.5182 67.7701C77.3593 67.6547 77.1933 67.5393 77.0272 67.4311V67.4383Z" fill="#37474F"/>
<path opacity="0.3" d="M65.5479 73.0529C65.5479 73.0529 72.9263 66.0054 74.4713 67.073C76.0235 68.1334 66.8618 72.5769 65.5479 73.0529Z" fill="#1C1B1F"/>
<path d="M65.9515 73.2676C65.9515 73.2676 73.236 75.5398 73.8425 75.9654C74.9687 76.7517 74.4345 79.5505 73.4887 80.4233C72.5429 81.2962 65.2656 73.6715 65.2656 73.6715L65.9515 73.2676Z" fill="#455A64"/>
<path d="M74.3771 76.7811C74.045 76.709 73.7129 76.6296 73.3664 76.5503C73.1859 76.5142 72.9982 76.4709 72.8249 76.4276C72.7672 76.6008 72.7094 76.7811 72.6516 76.9614C72.8321 77.0047 73.0198 77.048 73.2003 77.0841C73.6335 77.1851 74.0523 77.286 74.471 77.3726C74.4566 77.1634 74.4277 76.9614 74.3771 76.7811ZM73.2003 77.0913L73.3736 76.5503C73.453 76.305 73.5325 76.0814 73.5974 75.8361C73.4603 75.7784 73.287 75.7063 73.0776 75.627C72.991 75.8939 72.9043 76.1607 72.8249 76.4276C72.7672 76.6008 72.7094 76.7811 72.6516 76.9614C72.3629 77.8559 72.0524 78.7576 71.7275 79.6809C71.8936 79.8035 72.0524 79.919 72.204 80.0127C72.5506 79.0245 72.8827 78.0435 73.2003 77.0841V77.0913Z" fill="#37474F"/>
<path d="M68.45 75.9431C68.3778 76.1667 68.2984 76.3976 68.2262 76.6212C68.0746 76.4769 67.9229 76.3326 67.7786 76.1956C67.8219 76.0657 67.8652 75.9359 67.9085 75.8133C67.6775 75.7555 67.4465 75.6906 67.2082 75.6401C66.9194 75.3588 66.6523 75.0919 66.4141 74.8539C66.9772 74.9981 67.5331 75.1424 68.0818 75.2867C68.219 74.8827 68.3417 74.4788 68.4716 74.082C68.6449 74.1325 68.8254 74.1975 69.0059 74.2552C68.8759 74.6375 68.7532 75.0342 68.6233 75.4237C70.0816 75.7844 71.4894 76.1307 72.825 76.4408C72.7673 76.614 72.7095 76.7943 72.6518 76.9746C71.3161 76.6644 69.9083 76.3254 68.45 75.9575V75.9431Z" fill="#37474F"/>
<path opacity="0.3" d="M65.9512 73.2676C65.9512 73.2676 73.6978 75.648 73.5606 77.134C73.4234 78.62 66.7959 73.9889 65.9512 73.2676Z" fill="#1C1B1F"/>
<path d="M30.0129 60.4854C29.4209 61.7621 45.6505 85.0472 47.8885 85.6531C49.5635 86.1076 66.1468 75.0421 66.2912 72.9142C66.3562 72.0197 64.3925 72.7194 51.0363 68.5356C44.8419 66.5952 30.4894 59.4466 30.0129 60.4782V60.4854Z" fill="#455A64"/>
<path d="M34.1427 61.6287C34.1427 61.6287 34.1499 61.6071 34.1571 61.5926C33.9766 61.5205 33.8033 61.4556 33.6301 61.3907C33.6301 61.4051 33.6301 61.4051 33.6229 61.4195C33.5218 61.6864 33.4279 61.9605 33.3269 62.2346C33.5001 62.314 33.6662 62.3861 33.8395 62.4727C33.9405 62.1841 34.0488 61.8956 34.1499 61.6215L34.1427 61.6287ZM33.6445 63.0065C33.4712 62.9271 33.3052 62.855 33.1319 62.7756C32.8648 63.4898 32.5905 64.2256 32.3017 64.9758C32.4244 65.1633 32.5471 65.3581 32.6771 65.56C33.0164 64.6872 33.3413 63.836 33.6445 62.9993V63.0065ZM36.3663 69.412C36.4385 69.2389 36.5035 69.0658 36.5757 68.8927C37.1099 67.5293 37.6153 66.2165 38.0773 64.9469C38.1423 64.7666 38.2073 64.5934 38.2723 64.4203C38.3878 64.1029 38.4961 63.8 38.6044 63.497C38.4239 63.4176 38.2506 63.3455 38.0773 63.2734C37.969 63.5763 37.8608 63.8865 37.7452 64.1967C37.6875 64.3698 37.6225 64.5429 37.5575 64.7305C37.0883 66.0001 36.5901 67.3201 36.0486 68.6763C35.9837 68.8494 35.9115 69.0297 35.8393 69.2028C35.7382 69.4481 35.6444 69.7006 35.5361 69.953C35.6588 70.1406 35.7887 70.3209 35.9115 70.5085C36.0631 70.1478 36.2075 69.7799 36.3518 69.4265L36.3663 69.412ZM45.3908 73.0043C45.2103 72.9322 45.037 72.8745 44.8565 72.8024C44.3511 74.0864 43.8169 75.3992 43.2466 76.7337C43.427 76.8058 43.6003 76.8707 43.7808 76.9357C44.3511 75.6012 44.8854 74.2811 45.3908 73.0043ZM45.3908 73.0043C45.2103 72.9322 45.037 72.8745 44.8565 72.8024C44.3511 74.0864 43.8169 75.3992 43.2466 76.7337C43.427 76.8058 43.6003 76.8707 43.7808 76.9357C44.3511 75.6012 44.8854 74.2811 45.3908 73.0043ZM45.3908 73.0043C45.2103 72.9322 45.037 72.8745 44.8565 72.8024C44.3511 74.0864 43.8169 75.3992 43.2466 76.7337C43.427 76.8058 43.6003 76.8707 43.7808 76.9357C44.3511 75.6012 44.8854 74.2811 45.3908 73.0043ZM40.8569 71.2659C40.9291 71.0856 41.0013 70.9124 41.0662 70.7393C41.6005 69.376 42.0986 68.0415 42.5679 66.7791C42.6257 66.606 42.6907 66.4257 42.7556 66.2525C42.8567 65.964 42.9578 65.6899 43.0588 65.4158C42.8856 65.3436 42.7123 65.2715 42.539 65.185C42.438 65.4663 42.3369 65.7476 42.2358 66.0361C42.1708 66.2093 42.1059 66.3896 42.0409 66.5699C41.5788 67.8395 41.0807 69.1596 40.5392 70.5229C40.4742 70.696 40.402 70.8764 40.3298 71.0495C39.8678 72.2325 39.3624 73.4444 38.8354 74.6706C38.9509 74.8293 39.0736 74.9952 39.1819 75.1539C39.1964 75.1756 39.2036 75.19 39.218 75.2044C39.2252 75.1972 39.2253 75.1828 39.2325 75.1684C39.8028 73.8483 40.3443 72.5427 40.8497 71.2587L40.8569 71.2659ZM45.3908 73.0043C45.2103 72.9322 45.037 72.8745 44.8565 72.8024C44.3511 74.0864 43.8169 75.3992 43.2466 76.7337C43.427 76.8058 43.6003 76.8707 43.7808 76.9357C44.3511 75.6012 44.8854 74.2811 45.3908 73.0043ZM45.3908 73.0043C45.2103 72.9322 45.037 72.8745 44.8565 72.8024C44.3511 74.0864 43.8169 75.3992 43.2466 76.7337C43.427 76.8058 43.6003 76.8707 43.7808 76.9357C44.3511 75.6012 44.8854 74.2811 45.3908 73.0043ZM45.3908 73.0043C45.2103 72.9322 45.037 72.8745 44.8565 72.8024C44.3511 74.0864 43.8169 75.3992 43.2466 76.7337C43.427 76.8058 43.6003 76.8707 43.7808 76.9357C44.3511 75.6012 44.8854 74.2811 45.3908 73.0043ZM42.5607 79.7201C42.9 78.9554 43.2393 78.198 43.5642 77.4478C43.6364 77.2747 43.7086 77.1016 43.788 76.9357C44.3584 75.6012 44.8926 74.2811 45.398 73.0043C45.4702 72.824 45.5352 72.6509 45.6001 72.4778C46.1344 71.1072 46.6325 69.7727 47.0874 68.5104C47.1524 68.33 47.2101 68.1497 47.2751 67.9766C47.3617 67.7313 47.4483 67.4932 47.5278 67.2624C47.3545 67.1975 47.174 67.1254 47.0007 67.0532C46.9141 67.2913 46.8275 67.5365 46.7408 67.7746C46.6831 67.9477 46.6181 68.1208 46.5531 68.3084C46.0983 69.5707 45.6001 70.9052 45.0731 72.283C43.7519 71.7853 42.4163 71.2731 41.0735 70.7393C41.0013 70.9196 40.9291 71.0928 40.8641 71.2659C42.2141 71.7997 43.5498 72.3118 44.871 72.8096C44.3656 74.0936 43.8313 75.4064 43.261 76.7409C43.1888 76.914 43.1166 77.0872 43.0444 77.2531C42.7701 77.9023 42.4813 78.5515 42.1853 79.2079C42.3225 79.381 42.4452 79.5541 42.5751 79.7273L42.5607 79.7201ZM46.4159 83.0166C47.0224 81.711 47.6 80.4053 48.1414 79.1141C49.542 79.6046 50.9065 80.0735 52.2277 80.5135C52.2999 80.3332 52.3649 80.1673 52.4371 79.9942C51.1231 79.5542 49.7586 79.0853 48.358 78.5948C48.9211 77.2458 49.4554 75.9258 49.9535 74.6418C50.0185 74.4615 50.0835 74.2811 50.1557 74.1152C50.6827 72.7302 51.1737 71.3957 51.6213 70.1262C51.6862 69.9458 51.744 69.7655 51.809 69.5924C51.8956 69.3399 51.975 69.1019 52.0617 68.8566C52.0617 68.8494 52.0617 68.8422 52.0617 68.835C51.8812 68.7917 51.7151 68.7412 51.5491 68.6979C51.5418 68.6907 51.5274 68.6907 51.513 68.6835C51.4335 68.9287 51.3469 69.1668 51.2603 69.4048C51.2025 69.5779 51.1376 69.7583 51.0726 69.9386C50.625 71.201 50.134 72.5355 49.607 73.9204C48.2858 73.4588 46.943 72.9755 45.5713 72.4633C45.4991 72.6437 45.4341 72.8168 45.3691 72.9899C46.7336 73.4948 48.0837 73.9854 49.3976 74.447C48.8995 75.731 48.3725 77.0511 47.8021 78.4C47.7299 78.5659 47.6649 78.739 47.5927 78.9122C47.044 80.2034 46.4665 81.5018 45.86 82.8146C45.7806 82.9878 45.7084 83.1537 45.6218 83.3196C45.6001 83.3701 45.5713 83.4206 45.5496 83.4711C45.694 83.637 45.8312 83.7884 45.9539 83.9327C46.0189 83.7957 46.0838 83.6514 46.1488 83.5143C46.2282 83.3412 46.3004 83.1753 46.3799 83.0022L46.4159 83.0166ZM52.7547 80.6867C52.8269 80.5135 52.8991 80.3404 52.9713 80.1673C53.5272 78.8112 54.0543 77.4839 54.5452 76.1927C54.6102 76.0196 54.6824 75.8392 54.7473 75.6661C55.2744 74.2667 55.7581 72.9178 56.1985 71.6554C56.2635 71.4751 56.3212 71.302 56.379 71.1288C56.4873 70.8187 56.5883 70.5157 56.6894 70.2199C56.5161 70.1694 56.3356 70.1189 56.1479 70.0685C56.0469 70.357 55.9458 70.6528 55.8447 70.9557C55.7797 71.1216 55.722 71.302 55.657 71.4823C55.2238 72.7447 54.7329 74.0936 54.2059 75.4858C54.1409 75.6589 54.0687 75.8392 54.0037 76.0123C53.52 77.3036 52.993 78.6308 52.4299 79.987C52.3577 80.1529 52.2927 80.326 52.2205 80.5063C51.679 81.7903 51.1087 83.1032 50.5094 84.4232C50.4589 84.5242 50.4156 84.6252 50.365 84.7334C50.495 84.6685 50.6322 84.5891 50.7693 84.517C50.8993 84.4521 51.0365 84.3727 51.1736 84.3006C51.7223 83.0815 52.2494 81.8769 52.7475 80.6867H52.7547ZM59.1802 77.6642C59.2379 77.4911 59.3101 77.3108 59.3751 77.1376C59.9021 75.7238 60.3786 74.3749 60.8118 73.1198C60.8695 72.9466 60.9345 72.7663 60.9923 72.5932C61.1222 72.1964 61.2522 71.8141 61.3749 71.439C61.1944 71.3957 61.0139 71.3524 60.8262 71.3092C60.7107 71.6771 60.588 72.0449 60.4508 72.4273C60.393 72.6004 60.3353 72.7735 60.2703 72.9538C59.8371 74.2162 59.3534 75.5651 58.8408 76.9789C58.7686 77.1449 58.7037 77.318 58.6459 77.4983C58.2994 78.4216 57.9312 79.3666 57.5485 80.3404C57.8301 80.1529 58.1044 79.9653 58.3788 79.7706C58.6603 79.0564 58.9275 78.3567 59.1802 77.6714V77.6642ZM65.6128 73.9493C65.75 73.5453 65.9232 72.9538 66.0532 72.5427C65.9305 72.485 65.7572 72.4273 65.5117 72.3623C65.3746 72.7951 65.2085 73.3794 65.0713 73.7978C65.0136 73.9709 64.9558 74.1441 64.8908 74.3244C64.8331 74.5192 64.7609 74.7067 64.6959 74.9087C64.8836 74.7356 65.0569 74.5696 65.2157 74.4182C65.3529 74.2811 65.4756 74.1513 65.5839 74.0286V74.0214C65.5839 73.9998 65.5984 73.9709 65.6056 73.9421L65.6128 73.9493ZM33.3269 62.2346C32.2151 61.7225 31.1032 61.1959 30.0059 60.6621C30.0131 60.7054 30.0275 60.7487 30.0347 60.8064C30.0492 60.8569 30.0708 60.9146 30.0925 60.9795C30.1358 61.1021 30.1936 61.2608 30.2802 61.4195C31.226 61.8812 32.1789 62.3284 33.1319 62.7684C33.1969 62.5881 33.2619 62.4078 33.3269 62.2346ZM65.6128 73.9493C65.4323 73.8988 65.2518 73.8483 65.0713 73.7978C63.8151 73.4371 62.4506 73.0332 60.9851 72.5932C60.8118 72.5355 60.6313 72.4778 60.4508 72.4273C59.1585 72.0305 57.8084 71.5977 56.3862 71.1361C56.2129 71.0856 56.0324 71.0206 55.8519 70.9629C54.5524 70.5373 53.2023 70.0829 51.8162 69.5996C51.6429 69.5419 51.4624 69.477 51.2819 69.412C49.968 68.9576 48.6324 68.4815 47.2679 67.9766C47.0874 67.9044 46.9141 67.8467 46.7336 67.7746C45.4269 67.2841 44.0912 66.7791 42.7484 66.2453C42.5824 66.1732 42.4019 66.1083 42.2286 66.0361C40.9219 65.5168 39.6007 64.9758 38.2723 64.4203C38.099 64.3482 37.9185 64.2688 37.7524 64.1895C36.4457 63.6341 35.139 63.057 33.8322 62.4727C33.7672 62.6458 33.6951 62.8262 33.6373 62.9993C34.944 63.598 36.2508 64.1679 37.5648 64.7233C37.738 64.8026 37.9113 64.8748 38.0846 64.9469C39.413 65.5096 40.7341 66.0506 42.0409 66.5699C41.5788 67.8395 41.0807 69.1596 40.5392 70.5229C40.7125 70.595 40.893 70.6672 41.0662 70.7321C41.6005 69.3688 42.0986 68.0343 42.5679 66.7719C43.9108 67.2985 45.2392 67.8179 46.5531 68.3012C46.0983 69.5635 45.6001 70.898 45.0731 72.2758C43.7519 71.7781 42.4163 71.2659 41.0735 70.7321C41.0013 70.9124 40.9291 71.0856 40.8641 71.2587C42.2141 71.7925 43.5498 72.3046 44.871 72.8024C45.0515 72.8745 45.2247 72.9322 45.4052 73.0043C46.7697 73.5093 48.1198 73.9998 49.4337 74.4615C49.6142 74.5192 49.7875 74.5841 49.968 74.649C51.3541 75.1323 52.7114 75.594 54.0254 76.0196C54.0976 75.8392 54.1625 75.6661 54.2275 75.493C52.9136 75.0602 51.5635 74.6057 50.1701 74.1224C50.6972 72.7374 51.1881 71.403 51.6357 70.1334C53.0219 70.6095 54.3719 71.0711 55.6787 71.4895C55.2455 72.7519 54.7546 74.1008 54.2275 75.493C54.4008 75.5507 54.5813 75.6084 54.7618 75.6733C55.2888 74.2739 55.7725 72.925 56.2129 71.6626C57.6279 72.1315 58.9924 72.5571 60.2775 72.9466C60.458 73.0043 60.6385 73.062 60.8118 73.1125C62.2773 73.5598 63.6418 73.9637 64.8908 74.3244C64.9991 74.3605 65.1074 74.3893 65.2157 74.4182C65.3529 74.2811 65.4756 74.1513 65.5839 74.0286L65.6417 73.9565C65.6272 73.9565 65.62 73.9565 65.6056 73.9421L65.6128 73.9493ZM49.6287 73.9349C48.3075 73.4732 46.9646 72.9899 45.5929 72.4778C46.1272 71.1072 46.6253 69.7727 47.0801 68.5104C48.4446 69.0153 49.7875 69.4914 51.0942 69.953C50.6466 71.2154 50.1557 72.5499 49.6287 73.9349ZM59.3751 77.1376C59.1946 77.0871 59.0213 77.0367 58.8408 76.9789C57.5485 76.575 56.1768 76.1422 54.7546 75.6733C54.5813 75.6156 54.4008 75.5579 54.2203 75.493C52.9063 75.0602 51.5563 74.6057 50.1629 74.1224C49.9896 74.0647 49.8092 73.9998 49.6359 73.9349C48.3147 73.4732 46.9719 72.9899 45.6001 72.4778C45.4269 72.42 45.2464 72.3479 45.0731 72.283C43.7519 71.7853 42.4163 71.2731 41.0735 70.7393C40.893 70.6672 40.7197 70.6022 40.5464 70.5301C39.2325 70.0035 37.9113 69.4625 36.5829 68.8927C36.4096 68.8205 36.2363 68.7484 36.0631 68.6763C35.4205 68.4021 34.7852 68.1208 34.1427 67.8323C34.1932 67.9044 34.2438 67.9838 34.2943 68.0631C34.4387 68.2723 34.5831 68.4887 34.7202 68.7051C35.1029 68.871 35.4783 69.0369 35.8537 69.2028C36.027 69.275 36.2002 69.3471 36.3735 69.4192C37.6947 69.9891 39.0231 70.5373 40.3371 71.0567C40.5103 71.1288 40.6908 71.201 40.8641 71.2731C42.2141 71.8069 43.5498 72.3191 44.871 72.8168C45.0515 72.8889 45.2247 72.9466 45.4052 73.0188C46.7697 73.5237 48.1198 74.0142 49.4337 74.4759C49.6142 74.5336 49.7875 74.5985 49.968 74.6634C51.3541 75.1467 52.7114 75.6084 54.0254 76.034C54.2059 76.0917 54.3791 76.1494 54.5596 76.2071C55.9819 76.676 57.3464 77.116 58.6531 77.5055C58.8336 77.5632 59.0141 77.6209 59.1874 77.6714C59.7 77.8301 60.2053 77.9816 60.6891 78.1331C60.8768 77.996 61.0645 77.8518 61.2522 77.7219C60.6457 77.5416 60.0176 77.354 59.3823 77.1521L59.3751 77.1376ZM52.9713 80.1745C52.7981 80.1168 52.6176 80.0591 52.4371 80.0014C51.1231 79.5614 49.7586 79.0925 48.358 78.602C48.9211 77.2531 49.4554 75.933 49.9535 74.649C49.7731 74.5841 49.5998 74.5192 49.4193 74.4615C48.9211 75.7455 48.3941 77.0655 47.8238 78.4144C46.5026 77.9456 45.1525 77.4478 43.7808 76.9357C43.6003 76.8707 43.427 76.8058 43.2466 76.7337C41.9254 76.236 40.5825 75.7166 39.2325 75.1684C39.218 75.1684 39.1964 75.1539 39.1819 75.1467C39.1964 75.1684 39.2036 75.1828 39.218 75.1972C39.4057 75.4569 39.6007 75.7238 39.7884 75.9835C40.8785 76.4163 41.9542 76.8347 43.03 77.2386C43.2104 77.3108 43.3837 77.3757 43.5642 77.4406C44.9359 77.96 46.286 78.4505 47.6144 78.9194C47.7877 78.9843 47.9609 79.042 48.1414 79.1069C49.542 79.5974 50.9065 80.0663 52.2277 80.5063C52.401 80.564 52.5815 80.6217 52.7547 80.6795C53.7294 81.0041 54.6896 81.3142 55.6137 81.61L56.2129 81.2133C55.1661 80.8814 54.0831 80.5352 52.9713 80.1673V80.1745ZM50.5167 84.4304C49.1883 83.9832 47.8093 83.5143 46.4087 83.0166C46.2355 82.9589 46.0622 82.894 45.8745 82.8291C45.4702 82.6848 45.0587 82.5405 44.6544 82.389C44.8998 82.692 45.1381 82.9733 45.3619 83.2402C45.4557 83.2763 45.5352 83.3051 45.6362 83.334C45.8095 83.4061 45.99 83.4638 46.1705 83.5288C47.5061 84.0049 48.8129 84.4521 50.0835 84.8849C50.1774 84.8344 50.2712 84.7911 50.365 84.7406C50.495 84.6757 50.6322 84.5964 50.7693 84.5242C50.6827 84.4954 50.5961 84.4665 50.5094 84.4377L50.5167 84.4304Z" fill="#37474F"/>
<path opacity="0.1" d="M56.5515 81.0001C52.5446 83.6546 48.6533 85.8692 47.888 85.66C46.0687 85.1695 34.9722 69.6389 31.2324 63.1973C35.2682 69.3215 47.1371 83.0631 48.9204 83.5104C50.1477 83.8133 55.0931 81.6349 56.5515 81.0001Z" fill="#1C1B1F"/>
<path d="M70.9893 43.4336C70.9893 43.4336 81.566 46.2324 84.5838 51.1448C87.5944 56.0571 93.8104 68.5004 98.8064 76.3991C103.463 83.764 88.7062 94.5626 79.2052 88.0055C70.4984 81.9967 72.9964 58.892 72.4188 55.1915C71.8413 51.4982 67.8633 47.4515 67.8633 47.4515C67.8633 47.4515 68.9823 43.6716 70.9966 43.4336H70.9893Z" fill="#FFC727"/>
<path opacity="0.5" d="M70.9893 43.4336C70.9893 43.4336 81.566 46.2324 84.5838 51.1448C87.5944 56.0571 93.8104 68.5004 98.8064 76.3991C103.463 83.764 88.7062 94.5626 79.2052 88.0055C70.4984 81.9967 72.9964 58.892 72.4188 55.1915C71.8413 51.4982 67.8633 47.4515 67.8633 47.4515C67.8633 47.4515 68.9823 43.6716 70.9966 43.4336H70.9893Z" fill="#1C1B1F"/>
<path d="M118.12 8.37151C118.722 13.216 115.276 17.6334 110.43 18.2361C108.471 18.4783 106.582 18.0638 104.985 17.1556L100.819 18.7872L102.113 14.5623C101.295 13.4122 100.746 12.0465 100.561 10.5532C99.9587 5.70869 103.405 1.29129 108.251 0.691072C113.1 0.0878675 117.519 3.52944 118.118 8.37207L118.12 8.37151Z" fill="#FAFAFA"/>
<path d="M113.893 1.8582C112.746 1.16202 111.441 0.721888 110.098 0.59169C108.756 0.466336 107.383 0.659483 106.117 1.13426C104.854 1.61333 103.686 2.37143 102.759 3.3646C101.829 4.35592 101.128 5.55978 100.725 6.86281C99.9152 9.46458 100.358 12.4447 101.973 14.6607L101.948 14.5107L100.668 18.74L100.575 19.0526L100.876 18.9317L105.03 17.2722L104.921 17.2643C106.364 18.068 108.028 18.4606 109.672 18.3782C110.084 18.3593 110.491 18.3083 110.893 18.2253C111.301 18.1665 111.69 18.0405 112.085 17.926C112.854 17.6483 113.612 17.3169 114.277 16.8361C114.949 16.3741 115.571 15.8293 116.088 15.1964C116.366 14.8972 116.581 14.5462 116.819 14.2156C117.015 13.8589 117.242 13.5153 117.391 13.1361C118.085 11.6559 118.302 9.98248 118.12 8.36855C117.8 5.71199 116.214 3.22144 113.893 1.85577L113.893 1.8582ZM117.363 13.1248C117.21 13.5021 116.982 13.8408 116.786 14.1951C116.545 14.5215 116.332 14.8694 116.053 15.1638C115.537 15.7913 114.908 16.3173 114.232 16.7648C113.566 17.2281 112.809 17.5439 112.047 17.8047C111.658 17.9102 111.269 18.0309 110.867 18.0783C110.471 18.1548 110.069 18.1944 109.665 18.2062C108.052 18.256 106.435 17.8449 105.047 17.0385L104.997 17.0093L104.938 17.0306L100.763 18.6337L100.971 18.8254L102.279 14.605L102.304 14.5252L102.255 14.455C101.5 13.382 100.992 12.1395 100.779 10.844C100.586 9.54897 100.632 8.20368 101.028 6.94818C101.411 5.69307 102.074 4.52111 102.956 3.54103C103.84 2.56039 104.961 1.80272 106.188 1.31158C107.417 0.825293 108.761 0.610562 110.087 0.711523C111.412 0.81789 112.713 1.2284 113.865 1.90053C116.181 3.24198 117.782 5.71108 118.119 8.36613C118.292 9.9823 118.063 11.6507 117.362 13.12L117.363 13.1248Z" fill="#263238"/>
<path d="M112.968 10.2287C111.944 12.5229 110.378 13.7892 110.378 13.7892C110.378 13.7892 108.417 13.3403 106.488 11.7305C104.997 10.4863 104.508 8.11148 106.021 7.22236C107.693 6.24006 109.209 8.74691 109.209 8.74691C109.209 8.74691 109.475 5.80661 111.404 5.97452C113.153 6.1255 113.757 8.45581 112.968 10.2287Z" fill="#EF325A"/>
</svg>
