<svg width="396" height="123" viewBox="0 0 396 123" fill="none" xmlns="http://www.w3.org/2000/svg">
<path d="M-4.24133 22.6724C-1.62241 27.3048 3.46628 29.3332 3.46628 29.3332C3.46628 29.3332 7.78765 25.3897 9.11946 19.9453C10.2287 15.4068 8.60533 11.078 5.88062 10.6183C1.97456 9.95207 2.06381 18.346 2.06381 18.346C2.06381 18.346 0.0606615 10.3447 -3.48622 12.5306C-5.96094 14.0537 -6.42292 18.8023 -4.23936 22.6657L-4.24133 22.6724Z" fill="#C7C7C7"/>
<path d="M83.3859 113.137C89.0555 114.532 96.1583 111.795 96.1583 111.795C96.1583 111.795 99.0097 105.043 97.5148 99.6587C96.2674 95.1707 91.935 93.1675 88.4835 95.1225C83.5314 97.9196 88.3475 104.402 88.3475 104.402C88.3475 104.402 81.5086 99.8519 78.5784 104.572C76.5328 107.864 78.6567 111.966 83.3844 113.13L83.3859 113.137Z" fill="#C7C7C7"/>
<path d="M144.993 93.2315C145.624 94.7181 147.059 95.5573 147.059 95.5573C147.059 95.5573 148.447 94.6044 149.002 93.0677C149.464 91.7865 149.116 90.4366 148.329 90.1715C147.201 89.7892 146.976 92.2607 146.976 92.2607C146.976 92.2607 146.626 89.8132 145.518 90.2864C144.745 90.616 144.467 91.9898 144.994 93.2296L144.993 93.2315Z" fill="#C7C7C7"/>
<path d="M102.96 17.6662C103.088 22.2815 105.8 26.5693 105.8 26.5693C105.8 26.5693 110.105 26.4075 112.926 23.5189C115.277 21.1105 115.713 17.2713 114.039 15.3959C111.643 12.7025 108.737 18.388 108.737 18.388C108.737 18.388 110.214 11.8655 107.052 11.293C104.846 10.8923 102.857 13.814 102.964 17.6628L102.96 17.6662Z" fill="#C7C7C7"/>
<path d="M425.002 79.572C404.04 118.752 354.18 142 354.18 142C354.18 142 304.319 118.752 283.398 79.572C265.942 46.8918 277.001 11.5753 304.552 3.85994C344.044 -7.21278 354.18 34.77 354.18 34.77C354.18 34.77 364.315 -7.21278 403.848 3.85994C431.399 11.5753 442.458 46.8918 425.002 79.572Z" fill="#EBEBEB"/>
<path d="M209.413 106.308C214.132 109.508 220.879 109.185 220.879 109.185C220.879 109.185 224.641 103.595 224.332 97.9055C224.073 93.1628 220.642 89.8121 217.247 90.5726C212.377 91.6561 215.398 99.4912 215.398 99.4912C215.398 99.4912 210.241 92.8615 206.788 96.4633C204.378 98.9746 205.479 103.631 209.413 106.3V106.308Z" fill="#C7C7C7"/>
<path d="M326.67 35.8089C327.677 38.9613 330.568 41.1214 330.568 41.1214C330.568 41.1214 333.784 39.7119 335.337 36.8764C336.632 34.5078 336.2 31.7223 334.568 30.9217C332.23 29.7791 331.165 34.5829 331.165 34.5829C331.165 34.5829 330.993 29.629 328.497 30.1794C326.756 30.563 325.835 33.1818 326.677 35.8172L326.67 35.8089Z" fill="#C7C7C7"/>
<path d="M206.698 20.7009C209.112 27.3377 216.405 32 216.405 32C216.405 32 224.731 29.2685 228.882 23.4434C232.345 18.5837 231.394 12.7531 227.249 10.9924C221.308 8.46934 218.306 18.4082 218.306 18.4082C218.306 18.4082 218.137 8.07443 211.695 9.06721C207.206 9.75832 204.693 15.161 206.698 20.6954V20.7009Z" fill="#C7C7C7"/>
</svg>
