<svg width="266" height="224" viewBox="0 0 266 224" fill="none" xmlns="http://www.w3.org/2000/svg">
<g clip-path="url(#clip0_2116_11870)">
<path d="M205.063 85.2635C183.707 128.331 132.912 153.886 132.912 153.886C132.912 153.886 82.1165 128.331 60.8024 85.2635C43.019 49.3405 54.2852 10.5196 82.353 2.03864C122.586 -10.1328 132.912 36.0158 132.912 36.0158C132.912 36.0158 143.238 -10.1328 183.512 2.03864C211.58 10.5196 222.846 49.3405 205.063 85.2635Z" fill="#EBEBEB"/>
<path d="M31.9064 96.7423C35.786 99.3801 41.3333 99.1139 41.3333 99.1139C41.3333 99.1139 44.4264 94.5067 44.1721 89.8168C43.9592 85.9075 41.1382 83.1455 38.3468 83.7724C34.343 84.6655 36.8269 91.1238 36.8269 91.1238C36.8269 91.1238 32.5865 85.6591 29.7478 88.628C27.7666 90.698 28.6715 94.5363 31.9064 96.7364V96.7423Z" fill="#C7C7C7"/>
<path d="M213.875 10.2821C214.703 12.5177 217.08 14.0495 217.08 14.0495C217.08 14.0495 219.724 13.05 221.001 11.0392C222.066 9.35952 221.711 7.38417 220.368 6.81641C218.446 6.00616 217.571 9.41275 217.571 9.41275C217.571 9.41275 217.429 5.8997 215.377 6.29004C213.946 6.5621 213.189 8.41916 213.881 10.2881L213.875 10.2821Z" fill="#C7C7C7"/>
<path d="M202.703 73.3392C205.151 80.4954 212.549 85.5225 212.549 85.5225C212.549 85.5225 220.995 82.5772 225.205 76.2963C228.718 71.0563 227.754 64.7695 223.549 62.871C217.523 60.1505 214.477 70.867 214.477 70.867C214.477 70.867 214.306 59.7247 207.771 60.7951C203.217 61.5403 200.668 67.3658 202.703 73.3333V73.3392Z" fill="#C7C7C7"/>
<path d="M0 216.863C85.209 216.502 180.791 216.496 266 216.863C180.791 217.229 85.209 217.223 0 216.863Z" fill="#263238"/>
<path d="M100.852 90.864C101.508 94.2469 102.159 97.6476 102.969 101.001C103.46 103.047 104.087 105.023 104.779 106.986C105.66 107.442 106.683 107.838 107.86 108.134C107.677 107.637 107.505 107.14 107.334 106.655C106.494 104.307 105.891 101.924 105.305 99.4988C105.281 99.416 105.412 99.3982 105.435 99.481C106.127 101.941 107.026 104.366 107.943 106.756C108.144 107.276 108.357 107.791 108.581 108.299C109.516 108.494 110.533 108.642 111.663 108.713C111.426 108.151 111.207 107.578 110.988 107.022C110.468 105.709 109.977 104.39 109.522 103.047C108.635 100.404 107.925 97.7127 107.351 94.9862C107.328 94.8739 107.493 94.8561 107.523 94.9626C108.286 97.7186 109.155 100.457 110.119 103.154C110.574 104.425 111.053 105.697 111.556 106.957C111.799 107.56 112.065 108.151 112.331 108.755C114.005 108.82 115.885 108.743 118.008 108.482C123.426 107.82 128.654 105.383 133.29 102.509C137.253 100.049 140.807 96.7841 143.32 92.7507C141.304 91.2839 139.547 89.3204 138.122 87.3805C138.075 87.3155 138.163 87.2445 138.217 87.2977C139.376 88.4924 140.582 89.6279 141.842 90.7103C142.433 91.2189 143.048 91.6979 143.663 92.177C143.699 92.1178 143.734 92.0528 143.77 91.9936C144.006 91.5915 144.249 91.1597 144.479 90.7103C143.255 89.7108 142.132 88.5634 141.049 87.4397C139.494 85.831 138.057 84.1336 136.827 82.2648C136.744 82.1406 136.898 82.0104 137.004 82.1169C138.5 83.7019 139.949 85.3283 141.469 86.8897C142.54 87.9897 143.687 89.0188 144.787 90.0893C145.42 88.6994 145.81 87.1735 145.201 85.7009C144.698 84.4885 143.675 83.6132 142.782 82.7201C141.771 81.7206 140.801 80.6738 139.926 79.5501C133.042 70.7261 127.246 49.3462 119.339 49.8194C119.286 49.7661 105.252 47.1816 99.947 54.6099C91.5314 66.3969 98.7405 99.3213 99.8819 101.876C100.562 103.384 101.733 105.117 103.862 106.472C103.282 104.81 102.833 103.101 102.437 101.427C101.609 97.9552 101.13 94.4362 100.674 90.8995C100.663 90.7871 100.828 90.7635 100.846 90.8759L100.852 90.864Z" fill="#263238"/>
<path d="M102.673 97.0084C109.794 109.434 119.753 126.461 124.295 127.934C136.093 131.754 159.418 133.606 167.355 131.003C170.341 130.022 168.307 105.537 165.078 106.477C159.117 108.204 134.402 109.05 132.486 108.31C131.149 107.796 119.487 96.9847 110.462 90.5382C97.6582 81.3889 100.124 92.555 102.673 97.0143V97.0084Z" fill="#D3766A"/>
<g opacity="0.1">
<path d="M102.673 97.0084C109.794 109.434 119.753 126.461 124.295 127.934C136.093 131.754 159.418 133.606 167.355 131.003C170.341 130.022 168.307 105.537 165.078 106.477C159.117 108.204 134.402 109.05 132.486 108.31C131.149 107.796 119.487 96.9847 110.462 90.5382C97.6582 81.3889 100.124 92.555 102.673 97.0143V97.0084Z" fill="#1C1B1F"/>
</g>
<path d="M199.343 110.877C199.225 111.38 198.959 111.688 198.586 111.859C200.343 113.154 201.437 114.621 200.757 116.117C200.361 116.993 199.479 117.371 198.35 117.389C199.113 118.176 199.361 119.015 198.787 119.879C197.782 121.399 193.678 120.92 189.668 119.997C192.317 121.068 194.322 122.398 193.477 123.8C191.217 127.514 182.453 124.492 176.231 123.274C174.386 122.913 172.05 122.629 170.359 122.848C170.051 122.889 169.756 122.948 169.495 123.031C168.721 123.262 168.194 123.67 168.135 124.326C168.029 125.497 170.548 126.485 172.352 126.603C175.782 126.81 179.934 130.093 179.827 132.246C179.679 135.398 171.867 133.884 169.016 134.032C165.202 134.233 158.939 132.399 158.472 132.34C158.472 132.34 157.898 130.028 157.289 126.781C156.112 120.583 154.793 110.984 156.946 107.571C156.946 107.571 168.886 102.32 181.382 101.066C185.629 100.646 200.414 106.649 199.343 110.877Z" fill="#D3766A"/>
<path opacity="0.1" d="M199.343 110.877C199.225 111.38 198.959 111.688 198.586 111.859C200.343 113.154 201.437 114.621 200.757 116.117C200.361 116.993 199.479 117.371 198.35 117.389C199.113 118.176 199.361 119.015 198.787 119.879C197.782 121.399 193.678 120.92 189.668 119.997C192.317 121.068 194.322 122.398 193.477 123.8C191.217 127.514 182.453 124.492 176.231 123.274C174.386 122.913 172.05 122.629 170.359 122.848C170.051 122.889 169.756 122.948 169.495 123.031C168.721 123.262 168.194 123.67 168.135 124.326C168.029 125.497 170.548 126.485 172.352 126.603C175.782 126.81 179.934 130.093 179.827 132.246C179.679 135.398 171.867 133.884 169.016 134.032C165.202 134.233 158.939 132.399 158.472 132.34C158.472 132.34 157.898 130.028 157.289 126.781C156.112 120.583 154.793 110.984 156.946 107.571C156.946 107.571 168.886 102.32 181.382 101.066C185.629 100.646 200.414 106.649 199.343 110.877Z" fill="#1C1B1F"/>
<path d="M175.238 116.496C177.811 116.041 179.887 116.13 182.43 116.798C185.665 117.638 187.202 118.75 190.124 120.051C190.201 120.086 190.153 120.204 190.076 120.169C188.687 119.554 183.967 117.703 182.554 117.253C179.964 116.431 177.935 116.147 175.244 116.538C175.215 116.538 175.209 116.496 175.244 116.49L175.238 116.496Z" fill="#263238"/>
<path d="M176.042 110.884C179.023 110.695 181.069 110.654 184.044 111.085C187.303 111.553 190.271 113.126 193.169 114.622C194.914 115.521 196.635 116.456 198.338 117.431C198.409 117.473 198.362 117.591 198.291 117.55C195.334 115.988 192.33 114.516 189.284 113.144C186.416 111.848 183.47 111.121 180.336 111.009C178.568 110.949 177.817 110.861 176.054 110.932C176.019 110.932 176.013 110.884 176.048 110.878L176.042 110.884Z" fill="#263238"/>
<path d="M176.889 105.715C179.722 105.348 182.235 104.963 185.074 105.584C188.829 106.406 192.342 108.382 193.785 109.151C195.376 110.002 196.943 110.901 198.493 111.83C198.558 111.865 198.493 111.978 198.428 111.942C194.926 109.955 191.283 108.181 187.564 106.661C185.783 105.933 184.488 105.649 182.572 105.502C180.68 105.354 178.775 105.555 176.889 105.738C176.877 105.738 176.877 105.72 176.889 105.72V105.715Z" fill="#263238"/>
<path d="M126.885 101.378L115.441 120.635C115.441 120.635 102.519 99.6571 100.461 92.4122C98.143 84.2624 102.821 84.8597 109.888 88.7217C116.955 92.5837 126.885 101.378 126.885 101.378Z" fill="#973386"/>
<path d="M123 99.9887C121.208 102.242 116.796 109.765 116.057 111.001C115.667 111.652 114.218 114.319 113.821 114.963C113.768 115.046 113.91 115.111 113.957 115.029C114.714 113.792 115.596 112.639 116.364 111.403C117.151 110.143 121.894 102.686 123.094 100.048C123.118 99.9887 123.041 99.9355 123 99.9887Z" fill="#263238"/>
<path opacity="0.1" d="M122.799 108.25L115.436 120.635C115.436 120.635 102.514 99.6509 100.456 92.4119C99.3496 88.5026 99.8464 86.6101 101.437 86.1133H101.443L122.793 108.25H122.799Z" fill="#1C1B1F"/>
<path d="M186.853 215.645C188.793 215 187.072 209.406 184.913 207.679C184.227 207.129 181.684 205.833 178.496 204.296C171.476 200.919 161.381 196.406 161.381 196.406L169.986 159.975L134.94 160.164C134.94 160.164 125.371 194.378 125.43 196.507C125.43 196.637 125.43 196.767 125.436 196.903C125.737 206.561 126.217 214.462 127.009 214.959C129.132 216.302 184.901 216.296 186.853 215.639V215.645Z" fill="#D3766A"/>
<path d="M186.853 215.639C184.901 216.295 129.132 216.307 127.009 214.959C126.216 214.462 125.737 206.561 125.436 196.903C125.436 196.773 125.43 196.637 125.43 196.506C125.418 196.051 125.844 194.129 126.524 191.391H162.564L161.381 196.406C161.381 196.406 171.476 200.918 178.496 204.29C181.684 205.827 184.227 207.122 184.913 207.672C187.072 209.399 188.787 214.994 186.853 215.639Z" fill="#EBEBEB"/>
<path d="M187.48 215.959C185.499 216.628 128.712 216.563 126.554 215.185C125.726 214.676 125.253 206.402 124.969 196.383C124.969 196.277 124.969 196.176 124.963 196.07L161.6 195.703L161.588 196.324C161.588 196.324 183.31 206.071 185.528 207.833C187.728 209.59 189.473 215.297 187.486 215.953L187.48 215.959Z" fill="#973386"/>
<path d="M186.841 213.754C177.267 213.506 138.642 213.417 129.162 213.902C129.085 213.902 129.085 213.961 129.162 213.961C138.642 214.411 177.273 214.186 186.847 213.908C187.048 213.902 187.048 213.754 186.847 213.748L186.841 213.754Z" fill="#263238"/>
<path d="M165.675 195.81C161.908 195.1 157.301 195.674 154.421 198.359C154.308 198.466 154.456 198.619 154.58 198.584C158.3 197.419 161.772 196.668 165.657 196.289C165.929 196.265 165.941 195.863 165.675 195.816V195.81Z" fill="#263238"/>
<path d="M168.39 197.453C164.623 196.743 160.016 197.317 157.136 199.996C157.023 200.102 157.171 200.256 157.295 200.221C161.015 199.056 164.487 198.304 168.372 197.926C168.644 197.896 168.656 197.5 168.39 197.453Z" fill="#263238"/>
<path d="M171.11 199.091C167.342 198.382 162.735 198.955 159.855 201.64C159.743 201.747 159.891 201.901 160.015 201.865C163.735 200.7 167.206 199.949 171.092 199.57C171.364 199.547 171.376 199.145 171.11 199.097V199.091Z" fill="#263238"/>
<path d="M170.584 187.601C169.105 185.561 166.349 186.472 164.776 187.797C162.227 189.932 159.992 193.273 158.963 196.42C158.939 196.496 158.992 196.544 159.051 196.556C159.063 196.839 159.318 197.147 159.643 197.029C162.754 195.881 166.225 195.042 168.892 192.972C170.448 191.765 171.985 189.541 170.584 187.607V187.601ZM164.002 194.32C162.488 194.923 160.95 195.444 159.454 196.106C160.589 194.426 161.654 192.705 162.961 191.144C163.582 190.399 164.238 189.642 164.96 188.991C166.083 187.974 170.519 185.809 169.85 189.938C169.484 192.215 165.811 193.604 164.002 194.32Z" fill="#263238"/>
<path d="M149.388 195.421C152.493 196.746 156.059 196.687 159.359 197.006C159.702 197.042 159.873 196.681 159.808 196.403C159.867 196.374 159.903 196.32 159.862 196.249C158.07 193.47 155.065 190.802 152.061 189.377C150.204 188.496 147.306 188.313 146.389 190.66C145.526 192.884 147.572 194.647 149.388 195.421ZM147.691 192.736C145.999 188.91 150.843 189.88 152.185 190.584C153.049 191.033 153.871 191.601 154.663 192.163C156.325 193.346 157.78 194.741 159.306 196.078C157.691 195.818 156.077 195.699 154.456 195.504C152.528 195.268 148.625 194.854 147.691 192.742V192.736Z" fill="#263238"/>
<path d="M86.1079 135.696C86.1079 135.696 79.8273 158.436 90.7918 165.166C98.1134 169.661 130.469 163.445 131.847 159.447C134.449 151.895 134.455 149.121 134.455 149.121L126.146 189.178L166.905 189.657C166.905 189.657 174.552 156.52 172.588 121.348C171.861 108.342 154.379 104.409 142.22 110.88C130.427 117.149 109.314 134.56 109.314 134.56L86.1079 135.696Z" fill="#37474F"/>
<path d="M129.582 165.704C131.776 160.328 131.604 158.217 137.092 141.533C137.826 139.303 138.441 137.032 139.097 134.779C139.777 132.442 140.582 130.112 141.096 127.735C141.12 127.616 141.309 127.67 141.274 127.782C140.641 129.846 140.233 131.975 139.683 134.063C139.151 136.103 138.606 138.15 138.033 140.178C137.784 141.054 137.53 141.929 137.276 142.81C137.388 142.627 137.495 142.449 137.601 142.272C138.08 141.45 138.559 140.628 139.062 139.818C140.091 138.15 141.333 136.577 142.238 134.832C142.291 134.725 142.462 134.82 142.397 134.921C141.362 136.588 140.623 138.44 139.653 140.149C139.18 140.977 138.689 141.787 138.187 142.597C137.743 143.313 137.294 144.123 136.72 144.762C135.969 147.34 134.366 153.544 133.562 156.105C131.042 164.172 131.864 161.546 129.99 165.876C129.889 166.1 129.487 165.947 129.582 165.71V165.704Z" fill="#263238"/>
<path d="M148.146 182.561C142.013 182.496 135.886 182.147 129.753 182.028C129.635 182.028 129.617 181.845 129.742 181.845C135.857 181.81 141.966 181.573 148.081 181.644C154.22 181.715 160.341 182.017 166.473 182.224C166.627 182.224 166.657 182.472 166.491 182.472C160.376 182.484 154.267 182.62 148.152 182.555L148.146 182.561Z" fill="#263238"/>
<path d="M133.107 180.508C133.669 177.799 134.449 175.138 135.165 172.464C135.88 169.791 136.602 167.118 137.335 164.451C138.814 159.11 140.351 153.793 141.889 148.47C142.758 145.448 143.705 142.444 144.627 139.439C144.651 139.357 144.787 139.386 144.763 139.475C142.031 150.209 139.08 160.884 135.951 171.506C135.064 174.523 134.254 177.574 133.195 180.531C133.172 180.591 133.089 180.573 133.101 180.508H133.107Z" fill="#263238"/>
<path d="M90.7918 165.161C79.8273 158.431 86.1079 135.691 86.1079 135.691L105.666 134.732L132.29 158.129C132.148 158.549 132.006 158.987 131.847 159.442C130.475 163.44 98.1134 169.656 90.7918 165.155V165.161Z" fill="#263238"/>
<path d="M167.106 188.735C166.976 189.338 166.905 189.657 166.905 189.657L126.146 189.178L132.539 158.354L167.112 188.735H167.106Z" fill="#263238"/>
<path d="M4.71895 221.089C4.35228 223.1 10.0829 224.283 12.6378 223.23C13.448 222.893 15.8077 221.29 18.6937 219.232C25.0335 214.707 33.8454 208.03 33.8454 208.03L63.7939 209.84L80.5069 179.039C80.5069 179.039 52.9654 177.448 51.0729 176.472C50.9546 176.413 50.8423 176.348 50.724 176.289C42.1191 171.9 34.9572 168.511 34.1411 168.967C31.9411 170.179 5.09153 219.06 4.72486 221.083L4.71895 221.089Z" fill="#D3766A"/>
<path d="M56.3245 177.27L40.5696 208.444L33.8454 208.036C33.8454 208.036 25.0276 214.707 18.6878 219.232C15.8077 221.284 13.4539 222.887 12.6378 223.23C10.0829 224.294 4.35228 223.1 4.71895 221.089C5.08562 219.066 31.9352 170.185 34.1411 168.973C34.9572 168.517 42.1191 171.906 50.724 176.295C50.8482 176.354 50.9605 176.413 51.0729 176.472C51.5401 176.714 53.5509 176.992 56.3304 177.27H56.3245Z" fill="#EBEBEB"/>
<path d="M4.55948 220.935C4.93207 218.877 32.3376 169.139 34.5849 167.914C35.4306 167.435 42.9118 171.002 51.8242 175.579C51.9188 175.626 52.0075 175.674 52.1021 175.727L34.78 208.013L34.2419 207.699C34.2419 207.699 15.2343 222.041 12.6262 223.135C10.0299 224.218 4.1869 222.999 4.5654 220.941L4.55948 220.935Z" fill="#973386"/>
<path d="M6.79482 221.432C11.6206 213.164 30.303 179.346 34.4487 170.806C34.4842 170.735 34.4369 170.711 34.3955 170.776C29.4336 178.867 11.0233 212.832 6.6588 221.355C6.56417 221.532 6.69428 221.603 6.79482 221.432Z" fill="#263238"/>
<path d="M32.7163 211.526C35.1529 208.569 36.8679 204.251 35.9039 200.437C35.8685 200.289 35.6556 200.342 35.6319 200.472C34.8631 204.293 33.8459 207.693 32.3023 211.289C32.1959 211.544 32.5389 211.745 32.7104 211.532L32.7163 211.526Z" fill="#263238"/>
<path d="M29.9663 213.116C32.4029 210.159 34.1179 205.841 33.1539 202.027C33.1185 201.879 32.9056 201.932 32.8819 202.062C32.1131 205.883 31.0959 209.283 29.5523 212.879C29.4459 213.133 29.7889 213.335 29.9604 213.122L29.9663 213.116Z" fill="#263238"/>
<path d="M27.2222 214.708C29.6587 211.75 31.3738 207.433 30.4098 203.618C30.3743 203.471 30.1614 203.524 30.1378 203.654C29.3689 207.474 28.3517 210.875 26.8082 214.471C26.7017 214.725 27.0447 214.926 27.2162 214.713L27.2222 214.708Z" fill="#263238"/>
<path d="M37.5473 219.784C40.049 219.471 40.5753 216.614 40.1732 214.597C39.5285 211.333 37.6775 207.766 35.4183 205.353C35.3651 205.294 35.2941 205.318 35.2586 205.365C35.0043 205.235 34.614 205.318 34.5608 205.655C34.0699 208.937 33.1355 212.379 33.6618 215.715C33.9694 217.661 35.1817 220.08 37.5473 219.784ZM34.8328 210.783C35.0339 209.162 35.3178 207.565 35.4597 205.939C36.3823 207.743 37.3818 209.499 38.121 211.398C38.4758 212.303 38.8189 213.243 39.0436 214.189C39.3984 215.662 39.156 220.594 35.8559 218.022C34.0344 216.602 34.5903 212.717 34.8328 210.783Z" fill="#263238"/>
<path d="M40.9002 197.439C38.2448 199.521 36.5771 202.679 34.7083 205.418C34.5131 205.701 34.7438 206.027 35.0217 206.104C35.0217 206.169 35.0513 206.228 35.1341 206.222C38.4341 205.991 42.2191 204.643 44.9158 202.691C46.5777 201.485 48.139 199.036 46.5244 197.102C44.9927 195.275 42.4615 196.221 40.9121 197.433L40.9002 197.439ZM44.076 197.25C48.2454 197.611 45.0637 201.39 43.7981 202.224C42.9879 202.762 42.0949 203.212 41.2196 203.637C39.3862 204.525 37.4583 205.128 35.554 205.826C36.5594 204.536 37.4405 203.176 38.3927 201.851C39.5282 200.272 41.7696 197.055 44.0701 197.25H44.076Z" fill="#263238"/>
<path d="M113.98 131.375C113.98 131.375 115.015 140.832 114.92 148.071C114.92 148.071 153.639 168.363 155.408 187.649C156.034 194.48 155.124 207.278 141.728 213.115C126.76 219.633 44.0469 215.144 44.0469 215.144L54.3786 177.062L90.8621 177.08C90.8621 177.08 65.1185 181.173 62.3211 164.021C59.7249 148.077 69.5126 131.381 69.5126 131.381H113.98V131.375Z" fill="#37474F"/>
<path d="M52.5872 213.276C53.498 208.887 54.3791 204.481 55.3963 200.117C56.4195 195.74 57.5017 191.381 58.655 187.046C58.9802 185.822 59.3173 184.598 59.6485 183.379C59.8082 182.794 59.962 182.214 60.1335 181.635C60.305 181.049 60.441 180.446 60.6657 179.884C60.6894 179.819 60.7604 179.855 60.7544 179.92C60.648 181.037 60.3345 182.191 60.098 183.285C59.8673 184.343 59.6485 185.402 59.4179 186.461C58.9388 188.637 58.4539 190.814 57.9571 192.984C56.9576 197.337 55.8458 201.654 54.7162 205.966C54.0716 208.42 53.427 210.869 52.7764 213.317C52.741 213.453 52.5576 213.424 52.5872 213.282V213.276Z" fill="#263238"/>
<path d="M78.2656 177.069C81.2226 176.856 84.1855 176.762 87.1425 176.702C90.1055 176.643 93.0684 176.673 96.0313 176.726C98.9942 176.821 101.957 176.939 104.908 177.205C107.859 177.477 110.816 177.803 113.708 178.477L111.508 178.193L109.302 177.98C107.83 177.856 106.357 177.732 104.879 177.667C101.928 177.495 98.9765 177.377 96.0195 177.329C93.0625 177.229 90.1055 177.205 87.1485 177.164L78.2656 177.069Z" fill="#263238"/>
<path d="M77.6208 134.498C76.2961 137.893 75.1488 141.353 74.1789 144.86C73.2208 148.367 72.452 151.933 72.0735 155.535C71.8901 157.333 71.8192 159.149 71.9611 160.941C72.1031 162.727 72.4579 164.519 73.274 166.08C73.6703 166.861 74.2144 167.559 74.8531 168.144C75.5154 168.73 76.2488 169.226 77.0235 169.67C78.5789 170.533 80.2703 171.166 81.9972 171.669C85.4628 172.663 89.0703 173.177 92.6719 173.609C96.2795 174.029 99.9107 174.319 103.542 174.691C107.167 175.064 110.81 175.495 114.394 176.377C116.174 176.82 117.972 177.388 119.604 178.299C121.237 179.198 122.739 180.268 124.14 181.51L124.962 182.238L123.856 182.22L94.3574 181.824L79.6079 181.705C74.6934 181.688 69.7729 181.676 64.8584 181.812C69.767 181.528 74.6875 181.451 79.6079 181.362C84.5284 181.28 89.4429 181.268 94.3634 181.25L109.119 181.262L123.874 181.398L123.59 182.113C122.266 180.942 120.775 179.89 119.214 179.038C117.653 178.181 115.949 177.648 114.193 177.216C110.686 176.377 107.073 175.963 103.459 175.561C99.8456 175.176 96.2085 174.863 92.5832 174.425C88.9639 173.975 85.3268 173.443 81.7902 172.408C80.0278 171.888 78.2832 171.225 76.6687 170.291C75.8644 169.818 75.0955 169.28 74.3977 168.647C73.6998 167.996 73.1203 167.221 72.7004 166.37C71.8488 164.678 71.5176 162.809 71.3934 160.976C71.2751 159.131 71.3756 157.291 71.5826 155.476C72.0025 151.833 72.8778 148.272 73.9127 144.777C74.9595 141.282 76.1896 137.846 77.6267 134.492L77.6208 134.498Z" fill="#263238"/>
<path d="M109.764 130.973C109.764 130.89 109.9 130.885 109.906 130.967C110.059 132.286 110.521 139.821 110.745 142.66C110.828 143.671 110.769 145.475 112.248 145.475C113.413 145.475 113.998 144.203 114.122 143.21C114.282 142.003 113.631 133.262 113.484 130.346C113.484 130.264 113.614 130.258 113.626 130.34C114.164 133.256 115.199 142.53 114.891 143.831C114.649 144.848 114.122 145.818 113.087 146.161C113.064 146.167 113.253 147.521 113.04 149.597C113.028 149.692 112.732 149.715 112.715 149.639H112.709C112.762 148.958 112.395 146.315 112.407 146.303C111.644 146.303 111.041 146.131 110.532 145.445C109.509 144.079 109.734 134.327 109.758 130.967L109.764 130.973Z" fill="#263238"/>
<path d="M105.582 153.318C106.635 152.59 107.729 151.928 108.829 151.277C109.923 150.621 111.047 150.012 112.17 149.408C113.3 148.817 114.435 148.231 115.6 147.705C116.76 147.173 117.931 146.652 119.143 146.227C118.593 146.558 118.031 146.859 117.481 147.185L115.807 148.113C114.696 148.734 113.572 149.337 112.448 149.935C111.319 150.52 110.189 151.118 109.042 151.679L107.321 152.519C106.735 152.78 106.168 153.063 105.576 153.312L105.582 153.318Z" fill="#263238"/>
<path d="M78.0991 147.261C80.1513 147.255 86.5562 147.627 89.6078 145.049C92.0798 142.961 93.1621 135.84 93.5879 133.883C93.6116 133.788 93.7476 133.818 93.7535 133.906C93.8186 136.1 93.5051 138.33 92.9255 140.441C92.4288 142.245 91.7605 144.262 90.3056 145.522C88.7739 146.852 86.6922 147.32 84.7287 147.562C82.511 147.834 80.3051 147.769 78.0932 147.468C77.9572 147.45 77.9572 147.249 78.0932 147.249L78.0991 147.261Z" fill="#263238"/>
<path d="M115.56 125.351L114.176 141.302L63.6172 141.609C63.6172 141.609 77.7812 101.718 92.0399 88.1982C97.7114 82.8221 103.01 84.3716 107.073 88.4406C108.002 89.3692 119.238 107.674 120.214 114.233C121.013 119.614 115.566 125.357 115.566 125.357L115.56 125.351Z" fill="#973386"/>
<path d="M108.498 122.375C105.973 122.499 103.43 122.73 100.928 123.333C99.6804 123.635 98.4503 124.002 97.2202 124.41C96.6051 124.611 95.99 124.788 95.375 124.96C94.7422 125.137 94.0621 125.291 93.4175 125.267C93.3583 125.267 93.3524 125.38 93.4056 125.385C94.0266 125.462 94.6239 125.527 95.2508 125.498C95.8481 125.468 96.4513 125.35 97.0487 125.214C98.3142 124.924 99.5739 124.563 100.834 124.256C103.383 123.641 105.931 123.026 108.498 122.647C108.616 122.629 108.611 122.369 108.492 122.375H108.498Z" fill="#263238"/>
<path d="M114.43 125.763C112.401 125.319 110.32 125 108.256 124.858C107.215 124.787 106.18 124.793 105.133 124.84C104.636 124.858 104.134 124.894 103.637 124.935C103.087 124.976 102.543 125.118 101.993 125.154C101.934 125.154 101.928 125.272 101.987 125.272C102.501 125.26 103.022 125.361 103.536 125.384C104.057 125.414 104.571 125.432 105.092 125.461C106.127 125.515 107.162 125.585 108.202 125.627C110.278 125.71 112.348 125.816 114.418 125.994C114.53 126.005 114.542 125.798 114.436 125.775L114.43 125.763Z" fill="#263238"/>
<path d="M99.5859 87.832C99.5859 88.8493 102.774 96.1888 107.245 96.9931C108.699 97.2534 110.474 89.3638 110.474 89.3638L110.74 88.8138L114.43 81.078L106.263 72.7449L105.068 71.6152C105.068 71.6152 104.199 73.7976 103.146 76.524C103.099 76.6482 103.046 76.7783 102.998 76.9144C102.933 77.0681 102.874 77.2101 102.821 77.3579C102.655 77.766 102.496 78.18 102.336 78.594C102.218 78.9134 102.099 79.215 101.987 79.5521C101.863 79.8892 101.75 80.2145 101.632 80.5516C100.497 83.8813 99.6096 87.4003 99.6037 87.832H99.5859Z" fill="#D3766A"/>
<path d="M103.128 76.5299C103.98 83.5501 108.557 87.3825 110.733 88.8196L114.424 81.0838L106.256 72.7507L105.062 71.6211C105.062 71.6211 104.192 73.8034 103.14 76.5299H103.128Z" fill="#263238"/>
<path d="M128.919 71.348C126.364 86.169 117.198 86.311 114.004 85.755C111.106 85.2523 101.295 83.1705 102.306 68.1662C103.317 53.1618 111.018 49.6665 117.712 50.4708C124.407 51.2693 131.48 56.5329 128.925 71.3539L128.919 71.348Z" fill="#D3766A"/>
<path d="M126.46 67.2363C126.117 67.1357 125.821 66.9879 125.496 66.8518C125.129 66.6981 124.816 66.6153 124.585 66.2722C124.461 66.0889 124.526 65.7636 124.697 65.6276C125.088 65.3082 125.584 65.3792 126.04 65.5448C126.531 65.7222 126.862 65.9824 127.128 66.4319C127.388 66.8637 126.909 67.3664 126.46 67.2363Z" fill="#263238"/>
<path d="M116.677 65.6563C117.032 65.6741 117.363 65.6327 117.712 65.6149C118.109 65.5972 118.428 65.6208 118.765 65.3724C118.942 65.2423 118.99 64.917 118.872 64.7278C118.611 64.296 118.115 64.1955 117.635 64.2014C117.115 64.2014 116.713 64.3434 116.311 64.6746C115.92 64.9939 116.204 65.6267 116.672 65.6563H116.677Z" fill="#263238"/>
<path d="M118.008 69.7384C118.008 69.697 117.919 69.7739 117.919 69.8153C117.801 70.8326 117.493 71.9799 116.529 72.181C116.5 72.1869 116.494 72.2402 116.529 72.2402C117.671 72.2461 118.061 70.7261 118.008 69.7384Z" fill="#263238"/>
<path d="M117.257 68.5483C115.648 68.1816 115.033 71.4344 116.529 71.7716C117.996 72.1027 118.611 68.8558 117.257 68.5483Z" fill="#263238"/>
<path d="M116.589 68.5957C116.269 68.7258 115.932 68.9978 115.583 68.9683C115.181 68.9328 114.945 68.5365 114.749 68.1639C114.732 68.1225 114.696 68.1462 114.684 68.1935C114.56 68.8145 114.678 69.5005 115.329 69.7134C115.92 69.9145 116.464 69.4414 116.736 68.85C116.79 68.7376 116.719 68.5484 116.589 68.6016V68.5957Z" fill="#263238"/>
<path d="M123.874 70.5934C123.892 70.5579 123.945 70.6584 123.934 70.6998C123.703 71.6993 123.608 72.8822 124.454 73.3908C124.478 73.4086 124.466 73.4559 124.436 73.444C123.36 73.0714 123.496 71.5042 123.874 70.5934Z" fill="#263238"/>
<path d="M124.975 69.7186C126.613 69.9137 126.104 73.1784 124.584 73.001C123.088 72.8235 123.597 69.5589 124.975 69.7186Z" fill="#263238"/>
<path d="M125.625 70.0447C125.855 70.2576 126.062 70.6124 126.37 70.6834C126.725 70.7603 127.044 70.4527 127.322 70.1452C127.352 70.1156 127.375 70.1452 127.369 70.1866C127.287 70.8135 126.979 71.4345 126.364 71.4582C125.802 71.4818 125.483 70.8845 125.43 70.2398C125.418 70.1215 125.536 69.9559 125.631 70.0447H125.625Z" fill="#263238"/>
<path d="M116.825 77.8685C117.009 78.1583 117.174 78.5369 117.523 78.6492C117.86 78.7616 118.304 78.6965 118.653 78.6492C118.688 78.6492 118.712 78.6847 118.682 78.7084C118.333 79.0277 117.73 79.1401 117.292 78.9508C116.861 78.7675 116.731 78.3239 116.719 77.8863C116.719 77.8271 116.796 77.8212 116.825 77.8626V77.8685Z" fill="#263238"/>
<path d="M121.68 74.9661C121.68 74.9661 121.621 76.5098 121.497 77.2195C121.485 77.2845 121.308 77.2845 121.065 77.2609C121.053 77.2609 121.047 77.2609 121.036 77.2609C119.746 77.2372 118.558 76.5807 117.978 75.4215C117.943 75.3447 118.043 75.2855 118.102 75.3387C118.918 76.1904 119.924 76.5512 121.03 76.7641C121.113 76.5748 121.042 74.1204 121.154 74.1322C121.55 74.1677 122.266 74.564 122.703 74.7828C122.916 71.5714 122.609 68.354 122.869 65.1604C122.881 65.048 123.046 65.0421 123.064 65.1485C123.62 68.496 123.46 72.1983 123.33 75.5162C123.318 75.9302 121.946 75.1377 121.686 74.9661H121.68Z" fill="#263238"/>
<path d="M120.51 76.8756C120.51 76.8756 119.759 77.5854 118.877 77.7332C118.552 77.7864 118.215 77.7746 117.89 77.6208C117.216 77.3074 117.31 76.6568 117.541 76.1245C117.724 75.6869 118.008 75.332 118.008 75.332C118.008 75.332 118.872 76.4853 120.51 76.8816V76.8756Z" fill="#263238"/>
<path d="M118.877 77.7337C118.552 77.7869 118.215 77.7751 117.89 77.6213C117.216 77.3078 117.31 76.6573 117.541 76.125C118.286 76.3379 118.948 76.9885 118.877 77.7337Z" fill="#FF9CBD"/>
<path d="M101.922 70.7089C104.471 71.1998 105.677 65.877 105.677 65.877C105.677 65.877 110.899 66.4861 113.484 59.1703C113.484 59.1703 112.975 62.6537 110.462 65.12C110.462 65.12 119.788 65.1909 124.549 57.9224C124.549 57.9224 122.556 61.672 120.941 62.908C120.941 62.908 124.927 62.2693 127.169 59.3477C127.169 59.3477 128.275 63.9844 129.375 65.3565C129.375 65.3565 130.829 49.1871 115.696 49.2048C115.696 49.2048 106.275 48.7612 102.07 55.7814C97.8648 62.8016 101.916 70.7207 101.916 70.7207L101.922 70.7089Z" fill="#263238"/>
<path d="M107.523 66.5625L103.774 62.9785L102.904 64.049L107.02 67.154L107.523 66.5625Z" fill="#FFC727"/>
<path d="M106.778 67.6573L102.443 64.8008L101.78 66.0073L106.387 68.3257L106.778 67.6573Z" fill="#FFC727"/>
<path d="M104.459 69.7051C104.459 69.7051 102.478 64.329 100.124 64.9204C97.7641 65.5119 98.4205 72.7154 100.603 74.2531C102.785 75.7908 104.246 73.7977 104.246 73.7977L104.459 69.7051Z" fill="#D3766A"/>
<path d="M100.36 66.9841C100.325 66.9723 100.301 67.0255 100.331 67.0433C101.845 68.1788 102.324 69.9826 102.519 71.7805C102.182 71.0176 101.585 70.4972 100.585 70.8757C100.532 70.8934 100.556 70.9762 100.609 70.9762C101.342 71.0117 101.809 71.2601 102.135 71.9402C102.365 72.4193 102.46 72.9811 102.578 73.4957C102.619 73.6672 102.915 73.6613 102.903 73.472C102.903 73.4602 102.903 73.4424 102.903 73.4306C103.513 71.2778 102.631 67.8121 100.366 66.9841H100.36Z" fill="#263238"/>
<path d="M90.8325 103.044C92.3642 118.03 96.368 144.727 106.617 148.293C113.205 150.588 133.975 137.027 141.084 131.42C143.603 129.433 133.354 110.135 130.131 111.323C125.914 112.885 113.525 121.466 112.419 121.123C111.508 120.839 107.948 110.75 101.998 99.8144C94.4992 86.0224 89.561 90.6947 90.8266 103.038L90.8325 103.044Z" fill="#D3766A"/>
<path d="M144.148 128.298C141.835 132.715 134.845 133.904 134.845 133.904L125.217 115.215C125.217 115.215 130.675 111.087 132.272 107.817C132.739 106.87 135.371 101.997 137.624 97.1119C140.185 91.5643 143.574 86.076 144.254 85.7921C145.561 85.248 147.099 87.0459 146.253 91.1858C145.419 95.3258 142.379 103.115 142.32 103.629C142.314 103.694 142.332 103.872 142.361 104.15C142.456 104.369 147.329 107.858 147.347 110.567C147.365 113.335 145.738 125.234 144.142 128.286L144.148 128.298Z" fill="#D3766A"/>
<path d="M137.772 110.48C137.772 110.48 137.618 100.195 138.819 98.4209C140.019 96.6466 145.596 84.901 146.891 84.3273C148.187 83.7536 149.736 85.5871 148.896 89.727C148.056 93.867 145.023 101.65 144.963 102.171C144.904 102.691 146.507 111.604 146.412 112.473C146.318 113.342 137.778 110.486 137.778 110.486L137.772 110.48Z" fill="#D3766A"/>
<path d="M136.862 104.701C137.092 103.595 137.37 102.507 137.642 101.413C137.784 100.869 137.938 100.325 138.098 99.7805C138.18 99.5085 138.263 99.2364 138.352 98.9703C138.393 98.8343 138.452 98.6982 138.5 98.5622C138.559 98.4203 138.636 98.2724 138.695 98.16C139.73 96.1729 140.788 94.1739 141.847 92.1926C142.923 90.2113 143.982 88.236 145.112 86.2725C145.413 85.7816 145.756 85.3144 146.176 84.9004C146.389 84.6993 146.62 84.51 146.886 84.3622C147.152 84.2202 147.465 84.1138 147.797 84.1729C148.122 84.2262 148.394 84.4391 148.559 84.6875C148.731 84.9359 148.837 85.2079 148.914 85.4859C149.074 86.0418 149.104 86.6096 149.104 87.1714C149.038 86.6155 148.95 86.0536 148.761 85.5332C148.666 85.273 148.542 85.0246 148.376 84.8235C148.211 84.6224 147.986 84.4805 147.749 84.4627C147.264 84.4213 146.797 84.7821 146.436 85.1665C146.07 85.5628 145.768 86.0241 145.496 86.5031C144.473 88.4903 143.42 90.4952 142.356 92.4765C141.279 94.4577 140.215 96.4331 139.073 98.3848C138.79 98.8224 138.63 99.3725 138.435 99.8988C138.245 100.425 138.074 100.963 137.896 101.496L136.838 104.701H136.862Z" fill="#263238"/>
<path d="M139.375 112.163C139.375 112.163 139.251 100.885 140.451 99.1104C141.652 97.3361 147.229 85.5905 148.524 85.0168C149.819 84.4431 151.368 86.2765 150.529 90.4165C149.689 94.5564 146.655 102.34 146.596 102.86C146.537 103.38 147.193 112.151 147.093 113.015C146.992 113.884 139.375 112.163 139.375 112.163Z" fill="#D3766A"/>
<path d="M137.796 106.591C138.139 105.255 138.541 103.93 138.937 102.605C139.15 101.949 139.363 101.286 139.594 100.636C139.706 100.31 139.83 99.9791 139.96 99.6538C140.085 99.3345 140.256 98.9855 140.422 98.6957C141.729 96.265 143.042 93.8342 144.378 91.4153L146.401 87.7958L146.915 86.8969C147.087 86.6011 147.264 86.2818 147.483 85.9979C147.702 85.7081 147.944 85.436 148.24 85.1995C148.536 84.9747 148.885 84.7618 149.316 84.75C149.529 84.75 149.754 84.8091 149.931 84.9274C150.115 85.0398 150.239 85.2054 150.345 85.3651C150.552 85.6963 150.659 86.0452 150.73 86.3942C150.872 87.0979 150.901 87.7958 150.89 88.4937C150.86 89.8954 150.552 91.2734 150.056 92.5627C150.428 91.232 150.671 89.8658 150.6 88.4996C150.582 87.8195 150.529 87.1334 150.363 86.4829C150.28 86.1635 150.168 85.85 149.997 85.5957C149.825 85.3414 149.588 85.1877 149.328 85.2113C149.062 85.2231 148.784 85.3887 148.548 85.5898C148.311 85.7968 148.092 86.0393 147.897 86.3114C147.524 86.8436 147.223 87.4824 146.88 88.0797L144.887 91.711C143.55 94.1299 142.214 96.5429 140.824 98.9382C140.635 99.2457 140.493 99.5119 140.351 99.8312C140.215 100.145 140.079 100.458 139.955 100.778C139.7 101.416 139.458 102.061 139.221 102.711L137.79 106.603L137.796 106.591Z" fill="#263238"/>
<path d="M139.025 112.082C139.025 112.082 141.208 102.264 142.325 100.614C143.443 98.9638 146.749 90.7076 147.956 90.1694C149.162 89.6371 150.599 91.3404 149.818 95.1965C149.038 99.0526 148.098 103.624 148.038 104.103C147.985 104.588 147.181 112.206 147.086 113.01C146.992 113.814 139.02 112.082 139.02 112.082H139.025Z" fill="#D3766A"/>
<path d="M138.795 109.29C139.292 107.581 139.812 105.878 140.333 104.18C140.587 103.329 140.853 102.477 141.131 101.631L141.338 100.993C141.403 100.78 141.498 100.555 141.592 100.354C141.782 99.9459 141.983 99.5437 142.184 99.1475C143.006 97.5624 143.863 96.0011 144.774 94.4693C145.229 93.7005 145.691 92.9375 146.17 92.1864C146.412 91.8079 146.655 91.4353 146.909 91.0627C147.169 90.6901 147.412 90.3294 147.767 89.9686C147.956 89.7912 148.228 89.6137 148.559 89.6256C148.89 89.6315 149.15 89.8148 149.334 89.9982C149.7 90.3767 149.896 90.8202 150.049 91.2638C150.339 92.1509 150.44 93.109 150.274 94.0376C149.972 95.8 149.624 97.5447 149.286 99.2894C148.943 101.028 148.594 102.802 148.234 104.506C148.092 105.375 147.979 106.262 147.861 107.143C147.731 108.025 147.601 108.906 147.441 109.781C147.483 107.995 147.577 106.227 147.731 104.441L148.742 99.1889C149.068 97.4442 149.399 95.6876 149.689 93.9489C149.836 93.1209 149.754 92.2515 149.499 91.4531C149.369 91.0627 149.186 90.6665 148.932 90.4062C148.66 90.1342 148.429 90.1224 148.151 90.3826C147.879 90.6546 147.613 91.0331 147.364 91.3821C147.11 91.7429 146.868 92.1095 146.625 92.4821C146.146 93.2273 145.679 93.9784 145.218 94.7414C144.307 96.2672 143.39 97.7872 142.539 99.3426C142.326 99.733 142.119 100.123 141.923 100.52C141.722 100.904 141.598 101.318 141.444 101.744L140.563 104.263L138.789 109.296L138.795 109.29Z" fill="#263238"/>
<path d="M110.793 114.564L92.5952 127.629C92.5952 127.629 89.1532 103.233 90.1704 95.7691C91.3118 87.3709 95.357 89.7898 100.283 96.1594C105.216 102.529 110.793 114.559 110.793 114.559V114.564Z" fill="#973386"/>
<path d="M107.789 111.729C105.246 113.077 98.1901 118.199 97.0132 119.039C96.3923 119.477 94.003 121.345 93.382 121.777C93.3051 121.83 93.4057 121.943 93.4826 121.89C94.6654 121.062 95.9428 120.352 97.1374 119.53C98.3616 118.69 105.695 113.758 107.854 111.818C107.901 111.776 107.854 111.693 107.789 111.723V111.729Z" fill="#263238"/>
<path d="M90.3064 105.674C90.2946 105.568 90.1467 105.598 90.1467 105.698C90.2 107.792 90.3123 109.885 90.4543 111.973C90.1172 110.926 89.9161 109.862 89.7742 108.756C89.7682 108.708 89.6973 108.72 89.6973 108.768C89.7741 110.021 90.0876 111.281 90.4897 112.482C90.5903 113.937 90.7086 115.392 90.8387 116.846C91.1758 120.543 91.4715 124.257 92.0215 127.93C92.051 128.125 92.2817 128.208 92.4355 128.089C93.0505 127.616 93.6537 127.125 94.2392 126.611C94.2984 126.558 94.2392 126.439 94.1623 126.481C93.5946 126.788 93.0505 127.125 92.5005 127.462C92.2699 123.884 91.8559 120.312 91.5188 116.74C91.1758 113.044 90.7914 109.347 90.3005 105.669L90.3064 105.674Z" fill="#263238"/>
<path d="M106.771 105.828C106.345 104.728 105.914 103.622 105.452 102.534C105.441 102.51 105.411 102.528 105.417 102.552C105.701 103.374 106.002 104.19 106.31 105.006C105.446 103.498 104.559 102.008 103.607 100.564C103.595 100.541 103.56 100.564 103.572 100.588C104.684 102.972 105.925 105.29 107.091 107.644C108.238 109.956 109.415 112.239 110.603 114.528C110.237 114.889 109.858 115.244 109.48 115.593C109.409 115.658 109.492 115.764 109.574 115.711C110.048 115.403 110.521 115.096 111.012 114.812C111.124 114.747 111.201 114.617 111.142 114.481C109.811 111.559 108.356 108.655 106.777 105.828H106.771Z" fill="#263238"/>
<path d="M189.384 104.021C189.384 104.021 195.949 97.912 200.668 97.9711C205.393 98.0303 216.736 99.1658 224.395 99.154C231.539 99.1421 232.58 114.093 223.886 117.807C215.914 121.214 200.981 109.386 198.16 108.167C195.345 106.949 190.803 107.942 190.803 107.942C190.803 107.942 188.668 105.512 189.384 104.015V104.021Z" fill="#FFC727"/>
<path opacity="0.6" d="M189.384 104.021C189.384 104.021 195.949 97.912 200.668 97.9711C205.393 98.0303 216.736 99.1658 224.395 99.154C231.539 99.1421 232.58 114.093 223.886 117.807C215.914 121.214 200.981 109.386 198.16 108.167C195.345 106.949 190.803 107.942 190.803 107.942C190.803 107.942 188.668 105.512 189.384 104.015V104.021Z" fill="#1C1B1F"/>
<path d="M180.992 187.958C180.992 187.958 174.729 206.103 171.648 213.466C170.902 215.24 169.43 216.506 169.329 216.606C168.809 217.127 148.4 216.683 148.027 216.606C147.654 216.529 150.198 211.638 151.617 210.964C153.036 210.29 163.8 212.271 163.8 212.271C163.8 212.271 164.196 190.968 164.072 190.318C163.948 189.667 163.971 187.952 163.971 187.952L163.723 191.211C163.723 191.211 163.001 188.768 162.978 187.65C162.954 186.533 163.652 175.443 163.652 175.443L180.992 187.952V187.958Z" fill="#FFC727"/>
<path opacity="0.3" d="M180.992 187.958C180.992 187.958 174.729 206.103 171.648 213.466C170.902 215.24 169.43 216.506 169.329 216.606C168.809 217.127 148.4 216.683 148.027 216.606C147.654 216.529 150.198 211.638 151.617 210.964C153.036 210.29 163.8 212.271 163.8 212.271C163.8 212.271 164.196 190.968 164.072 190.318C163.948 189.667 163.971 187.952 163.971 187.952L163.723 191.211C163.723 191.211 163.001 188.768 162.978 187.65C162.954 186.533 163.652 175.443 163.652 175.443L180.992 187.952V187.958Z" fill="#1C1B1F"/>
<path d="M152.788 213.354C151.73 214.034 150.577 215.376 151.014 216.719C151.085 215.364 152.049 214.418 152.788 213.354Z" fill="#263238"/>
<path d="M150.695 213.229C149.636 213.909 148.483 215.251 148.92 216.594C148.991 215.239 149.955 214.293 150.695 213.229Z" fill="#263238"/>
<path opacity="0.1" d="M163.386 179.69C165.361 183.552 168.288 187.674 169.288 188.532C170.412 189.496 175.09 192.949 178.561 194.872C179.975 190.885 180.986 187.952 180.986 187.952L163.646 175.443C163.646 175.443 163.522 177.365 163.386 179.69Z" fill="#1C1B1F"/>
<path d="M243.61 200.052L246.395 204.18C253.185 193.451 257.88 178.423 257.171 166.009C257.017 163.324 256.768 157.469 256.006 155.293C255.207 153.01 252.824 150.171 252.629 149.946C252.747 150.177 254.214 153.022 254.722 155.719C254.557 155.316 254.379 154.926 254.184 154.542C247.98 141.974 225.483 137.402 225.483 137.402C225.483 137.402 239.381 147.764 244.923 166.228C246.88 172.746 246.904 179.92 246.301 185.976C246.537 183.054 246.117 178.613 246.088 178.335C246.058 178.855 245.331 192.753 244.532 196.515C244.503 196.657 244.473 196.775 244.444 196.882C244.42 196.97 244.402 197.053 244.39 197.124C243.935 198.975 243.598 200.052 243.598 200.052H243.61Z" fill="#FFC727"/>
<path opacity="0.3" d="M243.61 200.052L246.395 204.18C253.185 193.451 257.88 178.423 257.171 166.009C257.017 163.324 256.768 157.469 256.006 155.293C255.207 153.01 252.824 150.171 252.629 149.946C252.747 150.177 254.214 153.022 254.722 155.719C254.557 155.316 254.379 154.926 254.184 154.542C247.98 141.974 225.483 137.402 225.483 137.402C225.483 137.402 239.381 147.764 244.923 166.228C246.88 172.746 246.904 179.92 246.301 185.976C246.537 183.054 246.117 178.613 246.088 178.335C246.058 178.855 245.331 192.753 244.532 196.515C244.503 196.657 244.473 196.775 244.444 196.882C244.42 196.97 244.402 197.053 244.39 197.124C243.935 198.975 243.598 200.052 243.598 200.052H243.61Z" fill="#1C1B1F"/>
<path opacity="0.1" d="M243.61 200.052L246.396 204.18C247.259 202.82 248.087 201.389 248.874 199.904L244.876 194.416C244.769 195.274 244.663 195.995 244.551 196.521C244.521 196.663 244.492 196.782 244.462 196.888C244.438 196.977 244.421 197.06 244.409 197.131C243.953 198.982 243.616 200.058 243.616 200.058L243.61 200.052Z" fill="#1C1B1F"/>
<path d="M247.59 208.295C247.46 210.01 247.808 216.522 241.309 216.522H209.166C204.985 216.522 175.581 192.374 170.619 186.773C165.663 181.172 161.316 174.448 160.808 169.06C159.288 153.003 172.109 128.648 172.109 128.648C172.109 128.648 161.488 121.084 157.892 116.264C154.296 111.444 155.13 101.058 156.023 100.148C156.91 99.2368 174.747 107.333 174.747 107.333C174.747 107.333 181.625 102.638 186.072 101.407C190.52 100.177 205.659 112.905 207.635 117.175C209.616 121.445 207.7 128.554 205.464 132.528C203.223 136.502 200.088 138.844 200.088 138.844C199.976 139.613 199.864 141.05 200.272 142.381C200.875 144.327 216.044 165.18 218.806 167.233C221.574 169.291 236.897 174.891 240.256 180.652C243.621 186.406 248.252 199.264 247.584 208.307L247.59 208.295Z" fill="#FFC727"/>
<path opacity="0.2" d="M247.59 208.295C247.46 210.01 247.808 216.522 241.309 216.522H209.166C204.985 216.522 175.581 192.374 170.619 186.773C165.663 181.172 161.316 174.448 160.808 169.06C159.288 153.003 172.109 128.648 172.109 128.648C172.109 128.648 161.488 121.084 157.892 116.264C154.296 111.444 155.13 101.058 156.023 100.148C156.91 99.2368 174.747 107.333 174.747 107.333C174.747 107.333 181.625 102.638 186.072 101.407C190.52 100.177 205.659 112.905 207.635 117.175C209.616 121.445 207.7 128.554 205.464 132.528C203.223 136.502 200.088 138.844 200.088 138.844C199.976 139.613 199.864 141.05 200.272 142.381C200.875 144.327 216.044 165.18 218.806 167.233C221.574 169.291 236.897 174.891 240.256 180.652C243.621 186.406 248.252 199.264 247.584 208.307L247.59 208.295Z" fill="#1C1B1F"/>
<path opacity="0.2" d="M222.958 169.432C223.413 175.009 226.211 183.2 230.398 187.872C234.65 192.621 243.119 193.343 245.502 193.455C244 188.304 241.972 183.561 240.262 180.645C237.755 176.357 228.6 172.146 222.958 169.432Z" fill="#1C1B1F"/>
<path opacity="0.2" d="M218.699 171.887C218.208 174.051 213.838 174.4 211.75 173.466C209.657 172.531 208.462 169.249 210.183 167.226C211.904 165.204 219.303 169.255 218.705 171.881L218.699 171.887Z" fill="#1C1B1F"/>
<path opacity="0.2" d="M203.229 154.593C203.341 157.243 205.654 161.507 208.161 162.364C210.024 163.003 212.419 162.465 213.649 161.253C210.846 157.674 207.505 153.138 204.855 149.395C203.702 150.246 203.14 152.624 203.229 154.593Z" fill="#1C1B1F"/>
<path opacity="0.1" d="M171.956 147.538C171.512 145.456 171.246 143.292 171.488 141.245C171.506 141.08 171.282 140.985 171.163 141.109C170.85 141.452 169.963 142.41 169.833 142.558C169.833 142.434 169.844 142.304 169.856 142.18C169.892 141.754 169.951 141.328 170.028 140.908C170.182 140.062 170.4 139.234 170.69 138.424C170.98 137.62 171.335 136.839 171.761 136.094C172.186 135.343 172.701 134.645 173.192 133.923C173.215 133.894 173.156 133.852 173.127 133.876C172.435 134.473 171.867 135.201 171.37 135.934C170.879 136.656 170.465 137.419 170.122 138.211C169.773 139.016 169.507 139.85 169.324 140.701C169.229 141.145 169.158 141.594 169.105 142.044C169.058 142.475 168.993 142.931 169.105 143.374C169.176 143.664 169.602 143.623 169.726 143.416C169.797 143.292 170.921 141.919 171.092 141.718C171.009 142.6 170.98 143.481 171.075 144.392C171.187 145.45 171.412 146.515 171.784 147.562C171.82 147.656 171.968 147.627 171.95 147.538H171.956Z" fill="#1C1B1F"/>
<path opacity="0.1" d="M200.378 138.035C200.656 138.148 201.253 138.372 202.081 138.668L200.378 138.035Z" fill="#1C1B1F"/>
<path d="M209.917 212.773C209.917 212.773 210.775 215.819 210.118 216.476C209.462 217.132 181.565 216.801 181.518 216.476C181.471 216.15 185.806 210.272 188.544 209.97C191.282 209.668 200.052 212.212 200.052 212.212C200.052 212.212 184.02 192.269 188.721 180.346C190.791 175.1 203.193 173.059 219.09 179.476C233.538 185.308 230.054 211.23 222.129 214.069C214.205 216.907 209.923 212.773 209.923 212.773H209.917Z" fill="#FFC727"/>
<path opacity="0.2" d="M209.917 212.773C209.917 212.773 210.775 215.819 210.118 216.476C209.462 217.132 181.565 216.801 181.518 216.476C181.471 216.15 185.806 210.272 188.544 209.97C191.282 209.668 200.052 212.212 200.052 212.212C200.052 212.212 184.02 192.269 188.721 180.346C190.791 175.1 203.193 173.059 219.09 179.476C233.538 185.308 230.054 211.23 222.129 214.069C214.205 216.907 209.923 212.773 209.923 212.773H209.917Z" fill="#1C1B1F"/>
<path d="M218.073 178.992C210.923 176.106 196.049 172.061 189.875 178.182C184.937 183.41 188.308 192.565 191.034 198.178C193.518 203.181 196.581 207.877 200.053 212.218C198.421 209.965 196.877 207.652 195.452 205.269C191.584 198.775 184.57 185.953 189.993 178.992C195.623 172.599 210.976 176.55 218.073 178.992Z" fill="#263238"/>
<path d="M215.11 176.893C213.566 176.426 211.904 176.338 210.313 176.627C211.893 176.805 213.519 176.888 215.11 176.893Z" fill="#263238"/>
<path d="M210.024 216.523C210.225 216.464 210.349 216.245 210.373 216.044C210.479 215.441 210.456 214.82 210.432 214.211C210.32 212.2 209.929 210.178 209.456 208.214C209.35 207.824 209.255 207.427 209.131 207.043C209.178 207.445 209.243 207.847 209.291 208.249C209.403 209.001 209.716 211.059 209.841 211.839C210.012 213.034 210.219 214.229 210.284 215.429C210.284 215.796 210.408 216.299 210.024 216.518V216.523Z" fill="#263238"/>
<path d="M209.989 207.586C209.852 208.278 209.782 208.999 209.711 209.685C209.504 211.188 210.083 209.591 210.119 209.029C210.166 208.544 210.16 208.047 209.989 207.586Z" fill="#263238"/>
<path d="M187.149 213.354C186.09 214.034 184.937 215.376 185.375 216.719C185.446 215.364 186.409 214.418 187.149 213.354Z" fill="#263238"/>
<path d="M185.055 213.229C183.996 213.909 182.843 215.251 183.281 216.594C183.352 215.239 184.316 214.293 185.055 213.229Z" fill="#263238"/>
<path d="M170.329 165.037C170.329 165.037 159.199 155.563 156 149.276C152.8 142.989 148.998 132.308 147.85 127.801C147.519 126.506 146.484 109.858 147.064 108.864C147.643 107.871 151.416 109.994 153.427 112.714C154.515 114.187 153.622 122.289 154.196 124.247C154.622 125.69 164.492 137.264 165.249 138.045C166.012 138.831 174.652 143.521 181.217 146.236" fill="#FFC727"/>
<g opacity="0.2">
<path d="M170.329 165.037C170.329 165.037 159.199 155.563 156 149.276C152.8 142.989 148.998 132.308 147.85 127.801C147.519 126.506 146.484 109.858 147.064 108.864C147.643 107.871 151.416 109.994 153.427 112.714C154.515 114.187 153.622 122.289 154.196 124.247C154.622 125.69 164.492 137.264 165.249 138.045C166.012 138.831 174.652 143.521 181.217 146.236" fill="#1C1B1F"/>
</g>
<path d="M149.352 113.145C149.133 111.714 148.264 109.88 146.655 109.721C148.039 110.424 148.583 111.873 149.352 113.145Z" fill="#263238"/>
<path d="M151.511 111.538C150.896 110.184 149.488 108.415 147.826 108.693C149.435 109.018 150.381 110.456 151.511 111.538Z" fill="#263238"/>
<path d="M161.204 156.227C163.895 158.433 166.136 161.053 168.585 163.501C165.616 161.691 163.286 158.977 161.204 156.227Z" fill="#263238"/>
<path d="M164.492 159.863C165.367 160.916 166.012 162.057 166.373 163.37C165.314 162.483 164.622 161.241 164.492 159.863Z" fill="#263238"/>
<path d="M174.511 143.167C171.5 142.061 168.591 140.612 166.065 138.625C169.005 139.914 171.861 141.34 174.511 143.167Z" fill="#263238"/>
<path d="M170.063 140.748C171.495 140.529 172.985 140.801 174.162 141.67C172.707 141.576 171.4 141.339 170.063 140.748Z" fill="#263238"/>
<path d="M155.455 99.2513C154.68 99.8368 154.988 104.893 156.318 106.011C157.649 107.129 162.682 104.686 163.025 103.373C163.368 102.066 156.442 98.5002 155.461 99.2513H155.455Z" fill="#263238"/>
<path d="M156.608 104.859C156.779 106.569 156.785 111.885 158.583 112.471C160.15 112.932 161.795 111.856 163.09 111.046C161.854 112.063 160.174 113.252 158.471 112.773C156.336 112.051 156.537 106.752 156.608 104.859Z" fill="#263238"/>
<path d="M155.68 108.897C155.816 109.464 155.881 110.192 156.171 110.665C156.129 110.647 156.094 110.677 156.105 110.665C156.466 108.98 156.348 107.217 156.614 105.502C156.738 106.726 156.738 107.956 156.644 109.187C156.573 109.737 156.585 110.322 156.312 110.825C155.703 111.357 155.686 109.21 155.68 108.903V108.897Z" fill="#263238"/>
<path opacity="0.2" d="M183.322 107.6C187.704 109.013 188.822 113.088 187.55 117.015C186.521 120.197 182.878 122.604 178.673 121.25C174.468 119.895 173.102 115.235 174.066 112.248C175.03 109.262 178.567 106.068 183.322 107.6Z" fill="#1C1B1F"/>
<path d="M179.052 109.678C181.542 110.08 182.482 112.191 182.128 114.421C181.838 116.225 180.064 117.833 177.674 117.449C175.285 117.065 174.161 114.657 174.433 112.96C174.705 111.263 176.355 109.24 179.052 109.678Z" fill="#263238"/>
<path d="M178.739 110.111C181.075 110.489 181.962 112.471 181.625 114.57C181.353 116.267 179.685 117.782 177.438 117.415C175.196 117.054 174.132 114.795 174.392 113.198C174.646 111.601 176.196 109.703 178.739 110.111Z" fill="#FAFAFA"/>
<path d="M177.964 110.453C179.874 110.76 180.596 112.381 180.324 114.09C180.099 115.474 178.739 116.71 176.906 116.414C175.072 116.119 174.209 114.274 174.416 112.972C174.623 111.671 175.888 110.116 177.964 110.453Z" fill="#263238"/>
<path d="M200.349 139.004C200.349 139.004 206.032 133.528 206.748 133.256C207.457 132.978 211.017 134.758 211.331 136.053C211.644 137.342 200.366 139.832 200.366 139.832L200.349 139.01V139.004Z" fill="#455A64"/>
<path d="M202.424 139.337C202.259 139.378 202.105 139.414 201.957 139.455C201.709 139.017 201.466 138.592 201.218 138.172C201.324 138.065 201.437 137.959 201.561 137.846C201.851 138.331 202.134 138.828 202.424 139.337ZM205.772 137.166C205.358 136.451 204.95 135.753 204.541 135.079C204.423 135.179 204.311 135.286 204.193 135.398C204.589 136.06 204.985 136.734 205.387 137.432C205.464 137.562 205.541 137.693 205.618 137.829C205.73 138.024 205.843 138.219 205.949 138.42C206.103 138.379 206.257 138.337 206.404 138.296C206.268 138.047 206.132 137.811 205.996 137.574C205.925 137.432 205.848 137.302 205.772 137.172V137.166ZM209.29 135.291C209.208 135.155 209.137 135.025 209.06 134.895C208.811 134.463 208.557 134.038 208.303 133.618C208.054 133.511 207.818 133.423 207.605 133.352C207.96 133.937 208.32 134.54 208.681 135.161C208.752 135.291 208.835 135.422 208.912 135.552C209.214 136.072 209.515 136.604 209.817 137.148C209.971 137.083 210.112 137.024 210.243 136.959C209.929 136.391 209.61 135.836 209.296 135.291H209.29ZM209.752 134.404C209.521 134.57 209.296 134.73 209.06 134.895C208.936 134.984 208.811 135.073 208.681 135.161C207.759 135.806 206.789 136.474 205.772 137.166C205.647 137.255 205.517 137.338 205.387 137.426C204.476 138.042 203.518 138.674 202.543 139.307C202.957 139.207 203.418 139.094 203.897 138.97C204.482 138.586 205.056 138.201 205.618 137.823C205.742 137.734 205.872 137.651 205.996 137.562C207.019 136.871 207.995 136.196 208.912 135.552C209.042 135.469 209.166 135.374 209.29 135.286C209.586 135.079 209.876 134.872 210.154 134.676C210.024 134.582 209.888 134.487 209.752 134.398V134.404Z" fill="#37474F"/>
<path opacity="0.3" d="M200.349 139.005C200.349 139.005 206.393 133.227 207.658 134.102C208.93 134.971 201.425 138.615 200.349 139.005Z" fill="#1C1B1F"/>
<path d="M200.68 139.182C200.68 139.182 206.647 141.045 207.144 141.394C208.067 142.038 207.629 144.333 206.854 145.049C206.079 145.764 200.118 139.513 200.118 139.513L200.68 139.182Z" fill="#455A64"/>
<path d="M207.582 142.062C207.31 142.002 207.037 141.937 206.754 141.872C206.606 141.843 206.452 141.807 206.31 141.772C206.263 141.914 206.215 142.062 206.168 142.209C206.316 142.245 206.47 142.28 206.618 142.31C206.972 142.393 207.315 142.476 207.658 142.546C207.647 142.375 207.623 142.209 207.582 142.062ZM206.618 142.316L206.76 141.872C206.825 141.671 206.89 141.488 206.943 141.287C206.831 141.239 206.689 141.18 206.517 141.115C206.446 141.334 206.375 141.553 206.31 141.772C206.263 141.914 206.215 142.062 206.168 142.209C205.932 142.943 205.677 143.682 205.411 144.439C205.547 144.54 205.677 144.634 205.801 144.711C206.085 143.901 206.357 143.096 206.618 142.31V142.316Z" fill="#37474F"/>
<path d="M202.726 141.375C202.667 141.559 202.602 141.748 202.543 141.931C202.419 141.813 202.295 141.695 202.176 141.582C202.212 141.476 202.247 141.37 202.283 141.269C202.094 141.222 201.904 141.168 201.709 141.127C201.473 140.896 201.254 140.678 201.059 140.482C201.52 140.601 201.975 140.719 202.425 140.837C202.537 140.506 202.638 140.175 202.744 139.85C202.886 139.891 203.034 139.944 203.182 139.992C203.075 140.305 202.975 140.63 202.868 140.95C204.063 141.245 205.216 141.529 206.31 141.784C206.263 141.926 206.216 142.073 206.168 142.221C205.074 141.967 203.921 141.689 202.726 141.387V141.375Z" fill="#37474F"/>
<path opacity="0.3" d="M200.68 139.182C200.68 139.182 207.025 141.133 206.913 142.352C206.801 143.57 201.372 139.773 200.68 139.182Z" fill="#1C1B1F"/>
<path d="M171.24 128.702C170.755 129.749 184.049 148.84 185.883 149.337C187.255 149.709 200.839 140.637 200.957 138.892C201.011 138.159 199.402 138.733 188.461 135.302C183.387 133.712 171.63 127.851 171.24 128.696V128.702Z" fill="#455A64"/>
<path d="M174.622 129.638C174.622 129.638 174.628 129.62 174.634 129.609C174.486 129.549 174.344 129.496 174.202 129.443C174.202 129.455 174.202 129.455 174.196 129.467C174.114 129.686 174.037 129.91 173.954 130.135C174.096 130.2 174.232 130.259 174.374 130.33C174.457 130.094 174.545 129.857 174.628 129.632L174.622 129.638ZM174.214 130.768C174.072 130.703 173.936 130.644 173.794 130.579C173.575 131.164 173.351 131.767 173.114 132.382C173.215 132.536 173.315 132.696 173.422 132.861C173.7 132.146 173.966 131.448 174.214 130.762V130.768ZM176.444 136.02C176.503 135.878 176.556 135.736 176.615 135.594C177.053 134.476 177.467 133.4 177.845 132.359C177.898 132.211 177.952 132.069 178.005 131.927C178.1 131.667 178.188 131.418 178.277 131.17C178.129 131.105 177.987 131.046 177.845 130.987C177.757 131.235 177.668 131.489 177.573 131.744C177.526 131.886 177.473 132.028 177.419 132.181C177.035 133.222 176.627 134.305 176.183 135.416C176.13 135.558 176.071 135.706 176.012 135.848C175.929 136.049 175.852 136.256 175.764 136.463C175.864 136.617 175.971 136.765 176.071 136.919C176.195 136.623 176.314 136.321 176.432 136.031L176.444 136.02ZM183.836 138.965C183.688 138.906 183.546 138.858 183.398 138.799C182.985 139.852 182.547 140.928 182.08 142.023C182.228 142.082 182.369 142.135 182.517 142.188C182.985 141.094 183.422 140.012 183.836 138.965ZM183.836 138.965C183.688 138.906 183.546 138.858 183.398 138.799C182.985 139.852 182.547 140.928 182.08 142.023C182.228 142.082 182.369 142.135 182.517 142.188C182.985 141.094 183.422 140.012 183.836 138.965ZM183.836 138.965C183.688 138.906 183.546 138.858 183.398 138.799C182.985 139.852 182.547 140.928 182.08 142.023C182.228 142.082 182.369 142.135 182.517 142.188C182.985 141.094 183.422 140.012 183.836 138.965ZM180.122 137.54C180.181 137.392 180.24 137.25 180.294 137.108C180.731 135.99 181.139 134.896 181.524 133.861C181.571 133.719 181.624 133.571 181.678 133.429C181.76 133.193 181.843 132.968 181.926 132.743C181.784 132.684 181.642 132.625 181.5 132.554C181.417 132.785 181.335 133.015 181.252 133.252C181.198 133.394 181.145 133.542 181.092 133.689C180.714 134.73 180.305 135.813 179.862 136.93C179.809 137.072 179.75 137.22 179.69 137.362C179.312 138.332 178.898 139.326 178.466 140.331C178.561 140.461 178.661 140.597 178.75 140.727C178.762 140.745 178.768 140.757 178.78 140.769C178.786 140.763 178.786 140.751 178.791 140.739C179.259 139.657 179.702 138.586 180.116 137.534L180.122 137.54ZM183.836 138.965C183.688 138.906 183.546 138.858 183.398 138.799C182.985 139.852 182.547 140.928 182.08 142.023C182.228 142.082 182.369 142.135 182.517 142.188C182.985 141.094 183.422 140.012 183.836 138.965ZM183.836 138.965C183.688 138.906 183.546 138.858 183.398 138.799C182.985 139.852 182.547 140.928 182.08 142.023C182.228 142.082 182.369 142.135 182.517 142.188C182.985 141.094 183.422 140.012 183.836 138.965ZM183.836 138.965C183.688 138.906 183.546 138.858 183.398 138.799C182.985 139.852 182.547 140.928 182.08 142.023C182.228 142.082 182.369 142.135 182.517 142.188C182.985 141.094 183.422 140.012 183.836 138.965ZM181.518 144.471C181.796 143.844 182.074 143.223 182.34 142.608C182.399 142.466 182.458 142.324 182.523 142.188C182.99 141.094 183.428 140.012 183.842 138.965C183.901 138.817 183.954 138.675 184.008 138.533C184.445 137.409 184.853 136.315 185.226 135.28C185.279 135.133 185.326 134.985 185.38 134.843C185.451 134.642 185.522 134.446 185.587 134.257C185.445 134.204 185.297 134.145 185.155 134.086C185.084 134.281 185.013 134.482 184.942 134.677C184.895 134.819 184.842 134.961 184.788 135.115C184.416 136.15 184.008 137.244 183.576 138.374C182.494 137.965 181.4 137.546 180.3 137.108C180.24 137.256 180.181 137.398 180.128 137.54C181.234 137.977 182.328 138.397 183.41 138.805C182.996 139.858 182.559 140.934 182.091 142.028C182.032 142.17 181.973 142.312 181.914 142.448C181.689 142.981 181.453 143.513 181.21 144.051C181.323 144.193 181.423 144.335 181.53 144.477L181.518 144.471ZM184.676 147.174C185.173 146.103 185.646 145.033 186.089 143.974C187.237 144.376 188.354 144.761 189.437 145.122C189.496 144.974 189.549 144.838 189.608 144.696C188.532 144.335 187.414 143.951 186.267 143.548C186.728 142.442 187.166 141.36 187.574 140.307C187.627 140.16 187.68 140.012 187.739 139.876C188.171 138.74 188.573 137.646 188.94 136.605C188.993 136.457 189.04 136.309 189.094 136.168C189.165 135.961 189.23 135.765 189.301 135.564C189.301 135.558 189.301 135.552 189.301 135.547C189.153 135.511 189.017 135.47 188.881 135.434C188.875 135.428 188.863 135.428 188.851 135.422C188.786 135.623 188.715 135.819 188.644 136.014C188.597 136.156 188.544 136.304 188.49 136.451C188.124 137.486 187.722 138.581 187.29 139.716C186.208 139.338 185.108 138.941 183.984 138.521C183.925 138.669 183.872 138.811 183.818 138.953C184.936 139.367 186.042 139.769 187.118 140.148C186.71 141.201 186.279 142.283 185.811 143.389C185.752 143.525 185.699 143.667 185.64 143.809C185.19 144.867 184.717 145.932 184.221 147.008C184.155 147.15 184.096 147.286 184.025 147.422C184.008 147.464 183.984 147.505 183.966 147.546C184.085 147.682 184.197 147.807 184.297 147.925C184.351 147.813 184.404 147.694 184.457 147.582C184.522 147.44 184.581 147.304 184.646 147.162L184.676 147.174ZM189.868 145.264C189.928 145.122 189.987 144.98 190.046 144.838C190.501 143.726 190.933 142.638 191.335 141.579C191.388 141.437 191.447 141.289 191.501 141.147C191.932 140 192.329 138.894 192.689 137.859C192.743 137.711 192.79 137.569 192.837 137.427C192.926 137.173 193.009 136.925 193.092 136.682C192.95 136.641 192.802 136.599 192.648 136.558C192.565 136.794 192.482 137.037 192.4 137.285C192.346 137.421 192.299 137.569 192.246 137.717C191.891 138.752 191.489 139.858 191.057 140.999C191.004 141.141 190.945 141.289 190.892 141.431C190.495 142.49 190.064 143.578 189.602 144.69C189.543 144.826 189.49 144.968 189.431 145.116C188.987 146.168 188.52 147.245 188.029 148.327C187.988 148.41 187.952 148.493 187.911 148.581C188.017 148.528 188.13 148.463 188.242 148.404C188.349 148.351 188.461 148.286 188.573 148.227C189.023 147.227 189.454 146.239 189.863 145.264H189.868ZM195.132 142.786C195.179 142.644 195.238 142.496 195.292 142.354C195.723 141.195 196.114 140.089 196.468 139.06C196.516 138.918 196.569 138.77 196.616 138.628C196.723 138.303 196.829 137.989 196.93 137.682C196.782 137.646 196.634 137.611 196.48 137.575C196.386 137.877 196.285 138.178 196.173 138.492C196.125 138.634 196.078 138.776 196.025 138.924C195.67 139.959 195.274 141.064 194.854 142.224C194.795 142.36 194.742 142.502 194.694 142.649C194.41 143.407 194.109 144.181 193.795 144.98C194.026 144.826 194.251 144.672 194.475 144.512C194.706 143.927 194.925 143.353 195.132 142.791V142.786ZM200.401 139.74C200.514 139.408 200.656 138.924 200.762 138.586C200.661 138.539 200.52 138.492 200.318 138.439C200.206 138.793 200.07 139.272 199.958 139.615C199.91 139.757 199.863 139.899 199.81 140.047C199.763 140.207 199.703 140.361 199.65 140.526C199.804 140.384 199.946 140.248 200.076 140.124C200.188 140.012 200.289 139.905 200.378 139.805V139.799C200.378 139.781 200.389 139.757 200.395 139.734L200.401 139.74ZM173.954 130.135C173.043 129.715 172.132 129.283 171.233 128.846C171.239 128.881 171.251 128.917 171.257 128.964C171.269 129.005 171.287 129.053 171.304 129.106C171.34 129.206 171.387 129.337 171.458 129.467C172.233 129.845 173.014 130.212 173.794 130.573C173.847 130.425 173.901 130.277 173.954 130.135ZM200.401 139.74C200.253 139.698 200.106 139.657 199.958 139.615C198.929 139.32 197.811 138.989 196.61 138.628C196.468 138.58 196.321 138.533 196.173 138.492C195.114 138.167 194.008 137.812 192.843 137.433C192.701 137.392 192.553 137.339 192.406 137.291C191.341 136.942 190.235 136.57 189.1 136.173C188.958 136.126 188.81 136.073 188.662 136.02C187.586 135.647 186.492 135.257 185.374 134.843C185.226 134.784 185.084 134.736 184.936 134.677C183.866 134.275 182.772 133.861 181.672 133.423C181.536 133.364 181.388 133.311 181.246 133.252C180.175 132.826 179.093 132.382 178.005 131.927C177.863 131.868 177.715 131.803 177.579 131.738C176.509 131.282 175.438 130.809 174.368 130.33C174.315 130.472 174.255 130.62 174.208 130.762C175.279 131.253 176.349 131.72 177.425 132.175C177.567 132.24 177.709 132.3 177.851 132.359C178.939 132.82 180.022 133.264 181.092 133.689C180.714 134.73 180.305 135.813 179.862 136.93C180.004 136.99 180.152 137.049 180.294 137.102C180.731 135.984 181.139 134.89 181.524 133.855C182.624 134.287 183.712 134.713 184.788 135.109C184.416 136.144 184.008 137.238 183.576 138.368C182.494 137.96 181.4 137.54 180.3 137.102C180.24 137.25 180.181 137.392 180.128 137.534C181.234 137.971 182.328 138.391 183.41 138.799C183.558 138.858 183.7 138.906 183.848 138.965C184.966 139.379 186.072 139.781 187.148 140.16C187.296 140.207 187.438 140.26 187.586 140.313C188.721 140.71 189.833 141.088 190.909 141.437C190.968 141.289 191.022 141.147 191.075 141.005C189.999 140.65 188.893 140.278 187.751 139.882C188.183 138.746 188.585 137.652 188.952 136.611C190.087 137.001 191.193 137.38 192.264 137.723C191.909 138.758 191.507 139.864 191.075 141.005C191.217 141.053 191.365 141.1 191.513 141.153C191.944 140.006 192.34 138.9 192.701 137.865C193.86 138.249 194.978 138.598 196.031 138.918C196.179 138.965 196.327 139.012 196.468 139.054C197.669 139.42 198.787 139.752 199.81 140.047C199.899 140.077 199.987 140.1 200.076 140.124C200.188 140.012 200.289 139.905 200.378 139.805L200.425 139.746C200.413 139.746 200.407 139.746 200.395 139.734L200.401 139.74ZM187.308 139.728C186.225 139.349 185.125 138.953 184.002 138.533C184.439 137.409 184.847 136.315 185.22 135.28C186.338 135.694 187.438 136.085 188.508 136.463C188.142 137.498 187.739 138.592 187.308 139.728ZM195.292 142.354C195.144 142.312 195.002 142.271 194.854 142.224C193.795 141.892 192.672 141.538 191.507 141.153C191.365 141.106 191.217 141.059 191.069 141.005C189.993 140.65 188.887 140.278 187.745 139.882C187.603 139.834 187.456 139.781 187.314 139.728C186.231 139.349 185.131 138.953 184.008 138.533C183.866 138.486 183.718 138.427 183.576 138.374C182.494 137.965 181.4 137.546 180.3 137.108C180.152 137.049 180.01 136.995 179.868 136.936C178.791 136.505 177.709 136.061 176.621 135.594C176.479 135.535 176.337 135.476 176.195 135.416C175.669 135.192 175.148 134.961 174.622 134.724C174.664 134.784 174.705 134.849 174.746 134.914C174.865 135.085 174.983 135.263 175.095 135.44C175.409 135.576 175.716 135.712 176.024 135.848C176.166 135.907 176.308 135.966 176.45 136.026C177.532 136.493 178.62 136.942 179.696 137.368C179.838 137.427 179.986 137.486 180.128 137.546C181.234 137.983 182.328 138.403 183.41 138.811C183.558 138.87 183.7 138.918 183.848 138.977C184.966 139.391 186.072 139.793 187.148 140.171C187.296 140.219 187.438 140.272 187.586 140.325C188.721 140.721 189.833 141.1 190.909 141.449C191.057 141.496 191.199 141.544 191.347 141.591C192.512 141.975 193.63 142.336 194.7 142.655C194.848 142.703 194.996 142.75 195.138 142.791C195.558 142.922 195.972 143.046 196.368 143.17C196.522 143.058 196.675 142.939 196.829 142.833C196.332 142.685 195.818 142.531 195.297 142.366L195.292 142.354ZM190.046 144.844C189.904 144.796 189.756 144.749 189.608 144.702C188.532 144.341 187.414 143.957 186.267 143.554C186.728 142.448 187.166 141.366 187.574 140.313C187.426 140.26 187.284 140.207 187.136 140.16C186.728 141.212 186.296 142.295 185.829 143.401C184.747 143.016 183.641 142.608 182.517 142.188C182.369 142.135 182.228 142.082 182.08 142.023C180.997 141.614 179.897 141.189 178.791 140.739C178.78 140.739 178.762 140.727 178.75 140.721C178.762 140.739 178.768 140.751 178.78 140.763C178.933 140.976 179.093 141.195 179.247 141.408C180.14 141.762 181.021 142.105 181.902 142.437C182.05 142.496 182.192 142.549 182.34 142.602C183.464 143.028 184.569 143.43 185.658 143.815C185.8 143.868 185.942 143.915 186.089 143.968C187.237 144.371 188.354 144.755 189.437 145.116C189.579 145.163 189.726 145.21 189.868 145.258C190.667 145.524 191.453 145.778 192.21 146.021L192.701 145.695C191.844 145.423 190.957 145.139 190.046 144.838V144.844ZM188.035 148.333C186.947 147.966 185.817 147.582 184.67 147.174C184.528 147.127 184.386 147.073 184.232 147.02C183.901 146.902 183.564 146.784 183.233 146.659C183.434 146.908 183.629 147.138 183.812 147.357C183.889 147.387 183.954 147.41 184.037 147.434C184.179 147.493 184.327 147.541 184.475 147.594C185.569 147.984 186.639 148.351 187.68 148.706C187.757 148.664 187.834 148.629 187.911 148.587C188.017 148.534 188.13 148.469 188.242 148.41C188.171 148.386 188.1 148.363 188.029 148.339L188.035 148.333Z" fill="#37474F"/>
<path opacity="0.1" d="M192.98 145.522C189.697 147.698 186.51 149.514 185.883 149.343C184.393 148.94 175.303 136.207 172.239 130.926C175.545 135.947 185.268 147.214 186.729 147.58C187.734 147.829 191.785 146.043 192.98 145.522Z" fill="#1C1B1F"/>
<path d="M204.808 114.721C204.808 114.721 213.472 117.015 215.944 121.043C218.41 125.071 223.502 135.273 227.594 141.749C231.409 147.787 219.321 156.641 211.538 151.265C204.406 146.338 206.452 127.395 205.979 124.361C205.506 121.333 202.247 118.015 202.247 118.015C202.247 118.015 203.164 114.916 204.814 114.721H204.808Z" fill="#FFC727"/>
<path opacity="0.5" d="M204.808 114.721C204.808 114.721 213.472 117.015 215.944 121.043C218.41 125.071 223.502 135.273 227.594 141.749C231.409 147.787 219.321 156.641 211.538 151.265C204.406 146.338 206.452 127.395 205.979 124.361C205.506 121.333 202.247 118.015 202.247 118.015C202.247 118.015 203.164 114.916 204.814 114.721H204.808Z" fill="#1C1B1F"/>
<path d="M37.637 29.6628C38.8434 41.2132 49.1929 49.5996 60.7371 48.3931C65.4032 47.9022 69.5548 45.9269 72.7662 42.9638L83.2872 44.5075L78.0237 35.4114C79.3011 32.3064 79.8393 28.8466 79.4667 25.2862C78.2603 13.7358 67.9108 5.34943 56.3666 6.56184C44.8166 7.76834 36.4305 18.1182 37.6429 29.6628H37.637Z" fill="#FAFAFA"/>
<path d="M43.9299 12.297C46.2127 10.0673 48.9982 8.34627 52.038 7.32311C55.0778 6.31178 58.3601 6.02198 61.5477 6.44189C64.7294 6.87363 67.8402 8.00324 70.5193 9.80708C73.2042 11.605 75.4752 14.018 77.1075 16.8213C80.3779 22.4162 80.9516 29.5606 78.4026 35.5635L78.379 35.2027L83.6129 44.3165L83.9973 44.9907L83.2344 44.8725L72.7252 43.2579L72.9736 43.181C70.0639 45.8187 66.4209 47.6226 62.5708 48.3145C61.6069 48.492 60.637 48.5925 59.6611 48.6162C58.6853 48.699 57.7154 48.6162 56.7396 48.5629C54.8117 48.3323 52.8778 47.9715 51.0799 47.2145C49.2762 46.5048 47.5434 45.5763 46.0057 44.3875C45.2014 43.8434 44.5154 43.1455 43.788 42.5068C43.1433 41.7852 42.4337 41.111 41.8837 40.3126C39.4826 37.255 38.0809 33.4935 37.6374 29.6552C36.9514 23.327 39.2874 16.7031 43.9299 12.291V12.297ZM41.9428 40.2712C42.4987 41.0637 43.2084 41.7261 43.853 42.4417C44.5864 43.0686 45.2665 43.7606 46.0708 44.2929C47.6025 45.4698 49.3412 46.351 51.145 47.0252C52.9369 47.7409 54.859 48.0661 56.7633 48.2613C57.7214 48.2968 58.6853 48.3678 59.6434 48.2613C60.6015 48.2258 61.5536 48.1016 62.494 47.9124C66.2553 47.1613 69.78 45.3397 72.5596 42.7256L72.6601 42.631L72.808 42.6487L83.3349 44.1214L82.9564 44.6773L77.6634 35.599L77.5628 35.4275L77.6397 35.2382C78.8107 32.3462 79.3193 29.1939 79.1182 26.0771C78.8698 22.9721 78.0419 19.879 76.451 17.1821C74.8897 14.4793 72.7252 12.1195 70.1585 10.3216C67.5859 8.52369 64.5816 7.37042 61.4767 6.89137C58.3719 6.42415 55.1428 6.64889 52.1267 7.59516C49.1165 8.55326 46.3251 10.2033 44.0186 12.3798C39.3761 16.7326 36.9928 23.3151 37.6374 29.6493C38.1046 33.4876 39.5299 37.2313 41.9428 40.2594V40.2712Z" fill="#263238"/>
<path d="M50.5648 31.1974C54.1664 35.9642 58.4718 38.0578 58.4718 38.0578C58.4718 38.0578 62.7713 35.9642 66.3729 31.1974C69.1584 27.5128 69.0165 21.7464 65.0364 20.4985C60.6364 19.1205 58.4718 25.7444 58.4718 25.7444C58.4718 25.7444 56.2777 19.0732 51.9014 20.4985C47.9331 21.7878 47.7852 27.5128 50.5648 31.1974Z" fill="#EF325A"/>
</g>
<defs>
<clipPath id="clip0_2116_11870">
<rect width="266" height="223.628" fill="white"/>
</clipPath>
</defs>
</svg>
