<svg width="14" height="14" viewBox="0 0 14 14" fill="none" xmlns="http://www.w3.org/2000/svg">
<path d="M12.4808 13.0137L8.43582 8.98018C8.34721 8.90213 8.30291 8.82734 8.30291 8.75581C8.30291 8.68414 8.34721 8.604 8.43582 8.51539C8.52457 8.42664 8.60554 8.38227 8.67874 8.38227C8.75193 8.38227 8.83284 8.42664 8.92145 8.51539L12.9504 12.5441C13.0283 12.6222 13.0673 12.7032 13.0673 12.7871C13.0673 12.8709 13.023 12.9519 12.9344 13.0298C12.8563 13.1078 12.7807 13.1441 12.7075 13.1387C12.6343 13.1334 12.5587 13.0918 12.4808 13.0137ZM2.5577 12.2077C2.49256 12.2728 2.41346 12.2958 2.32041 12.2766C2.22749 12.2573 2.14791 12.2135 2.08166 12.1452C1.23985 10.8888 0.821864 9.48921 0.827697 7.94643C0.83353 6.40366 1.27721 5.00359 2.15874 3.74623C2.08179 4.5047 2.10554 5.21567 2.22999 5.87914C2.35443 6.54261 2.52749 7.15588 2.74916 7.71893C2.97082 8.28199 3.22353 8.7956 3.50728 9.25977C3.79089 9.72393 4.05714 10.1238 4.30603 10.4594L2.5577 12.2077ZM4.81249 9.95289C4.38402 9.47109 4.00742 8.89338 3.6827 8.21977C3.35784 7.54616 3.10756 6.87519 2.93186 6.20685C2.75617 5.53866 2.67902 4.92678 2.70041 4.37123C2.72166 3.81567 2.86054 3.40268 3.11707 3.13227C3.37346 2.87268 3.78638 2.73678 4.35582 2.72456C4.92527 2.7122 5.54221 2.7931 6.20666 2.96727C6.87124 3.14143 7.53763 3.39435 8.20582 3.72602C8.87416 4.05782 9.43693 4.43956 9.89416 4.87123L4.81249 9.95289ZM12.0512 2.13393C12.1196 2.1863 12.1711 2.25817 12.2058 2.34956C12.2405 2.44081 12.2253 2.51907 12.1602 2.58435L10.3798 4.3856C10.0444 4.13338 9.65332 3.86359 9.20666 3.57623C8.76013 3.28887 8.25804 3.03435 7.70041 2.81268C7.14263 2.59102 6.53471 2.41261 5.87666 2.27748C5.21846 2.14234 4.51547 2.10782 3.7677 2.17393C5.00797 1.29255 6.3827 0.852407 7.89186 0.853518C9.40089 0.854629 10.7873 1.28143 12.0512 2.13393Z" fill="#1C1B1F"/>
</svg>
