<svg width="20" height="18" viewBox="0 0 20 18" fill="none" xmlns="http://www.w3.org/2000/svg">
<path d="M2.12935 15.5C1.62874 15.5 1.20501 15.325 0.858161 14.975C0.511314 14.625 0.337891 14.1974 0.337891 13.6923V2.30775C0.337891 1.80258 0.511314 1.375 0.858161 1.025C1.20501 0.675 1.62874 0.5 2.12935 0.5H17.3753C17.8759 0.5 18.2996 0.675 18.6464 1.025C18.9933 1.375 19.1667 1.80258 19.1667 2.30775V16.8538C19.1667 17.2589 18.9835 17.5394 18.617 17.6952C18.2503 17.8509 17.926 17.7864 17.6441 17.5018L15.6601 15.5H2.12935ZM16.2928 14L17.6802 15.3848V2.30775C17.6802 2.23075 17.6484 2.16025 17.5849 2.09625C17.5214 2.03208 17.4516 2 17.3753 2H2.12935C2.05305 2 1.98318 2.03208 1.91976 2.09625C1.85617 2.16025 1.82438 2.23075 1.82438 2.30775V13.6923C1.82438 13.7693 1.85617 13.8398 1.91976 13.9038C1.98318 13.9679 2.05305 14 2.12935 14H16.2928Z" fill="#666666"/>
</svg>
