<svg width="10" height="16" viewBox="0 0 10 16" fill="none" xmlns="http://www.w3.org/2000/svg">
<path d="M4.99996 15.5827C3.62815 15.5827 2.52135 15.404 1.67954 15.0466C0.837598 14.6893 0.416626 14.2152 0.416626 13.6243C0.416626 13.3402 0.549612 13.0699 0.815584 12.8135C1.0817 12.5571 1.46899 12.33 1.97746 12.1323L2.15371 12.7846C1.8226 12.9353 1.58628 13.0683 1.44475 13.1837C1.30308 13.299 1.1719 13.4528 1.05121 13.6452C1.0769 13.9892 1.49413 14.287 2.30288 14.5385C3.11163 14.7902 4.01065 14.916 4.99996 14.916C6.03413 14.916 6.94864 14.7902 7.7435 14.5385C8.53836 14.287 8.93475 13.9684 8.93267 13.5827C8.77031 13.3903 8.61829 13.2391 8.47663 13.1291C8.3351 13.0191 8.11961 12.8973 7.83017 12.7637L8.02246 12.1114C8.53093 12.3092 8.91822 12.5398 9.18433 12.8031C9.45031 13.0664 9.58329 13.3402 9.58329 13.6243C9.58329 14.2152 9.16232 14.6893 8.32038 15.0466C7.47857 15.404 6.37177 15.5827 4.99996 15.5827ZM4.99996 12.5698C4.89315 12.5698 4.79142 12.5281 4.69475 12.4448C4.59795 12.3614 4.52176 12.2541 4.46621 12.1227C4.10413 11.2713 3.71343 10.5643 3.29413 10.0018C2.87468 9.43935 2.46413 8.90539 2.06246 8.39997C1.67468 7.8947 1.34857 7.36504 1.08413 6.81102C0.819682 6.25713 0.687459 5.56296 0.687459 4.72852C0.687459 3.49879 1.09878 2.47261 1.92142 1.64997C2.74406 0.827335 3.77024 0.416016 4.99996 0.416016C6.22968 0.416016 7.25586 0.827335 8.0785 1.64997C8.90114 2.47261 9.31246 3.49879 9.31246 4.72852C9.31246 5.56296 9.18371 6.25713 8.92621 6.81102C8.66871 7.36504 8.34607 7.8947 7.95829 8.39997C7.57052 8.90539 7.16343 9.43588 6.73704 9.99143C6.31079 10.547 5.91663 11.2505 5.55454 12.1019C5.49899 12.2332 5.42281 12.3441 5.326 12.4343C5.22933 12.5246 5.12065 12.5698 4.99996 12.5698ZM4.99996 5.91914C5.34399 5.91914 5.62843 5.80671 5.85329 5.58185C6.07815 5.35699 6.19059 5.07254 6.19059 4.72852C6.19059 4.38449 6.07815 4.09657 5.85329 3.86477C5.62843 3.63296 5.34399 3.51706 4.99996 3.51706C4.65593 3.51706 4.37149 3.63296 4.14663 3.86477C3.92177 4.09657 3.80933 4.38449 3.80933 4.72852C3.80933 5.07254 3.92177 5.35699 4.14663 5.58185C4.37149 5.80671 4.65593 5.91914 4.99996 5.91914Z" fill="#1C1B1F"/>
</svg>
