<svg width="37" height="37" viewBox="0 0 37 37" fill="none" xmlns="http://www.w3.org/2000/svg">
<path d="M32.8498 0.0507812H4.14981C1.8948 0.0507812 0.0498047 1.89578 0.0498047 4.15078V32.8508C0.0498047 35.1078 1.8948 36.9508 4.14981 36.9508H18.4998V22.6008H14.3998V17.527H18.4998V13.3245C18.4998 8.88833 20.9844 5.77233 26.2201 5.77233L29.9163 5.77643V11.1167H27.4624C25.4247 11.1167 24.6498 12.646 24.6498 14.0646V17.5291H29.9142L28.7498 22.6008H24.6498V36.9508H32.8498C35.1048 36.9508 36.9498 35.1078 36.9498 32.8508V4.15078C36.9498 1.89578 35.1048 0.0507812 32.8498 0.0507812Z" fill="#666666"/>
</svg>
