<svg width="14" height="13" viewBox="0 0 14 13" fill="none" xmlns="http://www.w3.org/2000/svg">
<path d="M7.00002 9.42805C7.06516 9.42805 7.13488 9.41603 7.20918 9.392C7.28335 9.36798 7.34509 9.32909 7.39439 9.27534C7.49467 9.172 7.65036 9.02256 7.86147 8.827C8.07245 8.63159 8.28884 8.41416 8.51064 8.17471C8.73231 7.93527 8.9262 7.68284 9.09231 7.41742C9.25828 7.15187 9.34127 6.89416 9.34127 6.6443C9.34127 6.30569 9.21571 6.00791 8.9646 5.75096C8.71349 5.49402 8.4121 5.36555 8.06043 5.36555C7.86946 5.36555 7.68293 5.41201 7.50085 5.50492C7.31863 5.59784 7.15168 5.71645 7.00002 5.86075C6.86974 5.71645 6.71515 5.59784 6.53627 5.50492C6.35738 5.41201 6.16946 5.36555 5.97252 5.36555C5.62793 5.36555 5.33161 5.49346 5.08356 5.7493C4.8355 6.00499 4.71147 6.30131 4.71147 6.63826C4.71147 6.8902 4.78814 7.15055 4.94147 7.4193C5.09481 7.68791 5.28259 7.94082 5.50481 8.17805C5.72703 8.41527 5.94272 8.63214 6.15189 8.82867C6.3612 9.02534 6.513 9.17173 6.60731 9.26784C6.6555 9.32659 6.71668 9.36798 6.79085 9.392C6.86515 9.41603 6.93488 9.42805 7.00002 9.42805ZM3.00689 12.1668C2.68231 12.1668 2.40557 12.0515 2.17668 11.821C1.94779 11.5904 1.83335 11.3133 1.83335 10.9895V5.33825L0.659391 6.25784C0.586196 6.31575 0.504252 6.33617 0.413557 6.31909C0.322724 6.302 0.246821 6.25819 0.185849 6.18763C0.125016 6.11707 0.0977934 6.03638 0.104182 5.94555C0.110571 5.85485 0.152307 5.77916 0.229391 5.71846L6.27564 1.08513C6.38606 0.995408 6.50502 0.934991 6.63252 0.90388C6.75988 0.872908 6.88314 0.857422 7.00231 0.857422C7.12147 0.857422 7.24238 0.872908 7.36502 0.90388C7.48765 0.934991 7.6021 0.995408 7.70835 1.08513L13.7552 5.71846C13.8319 5.77916 13.8761 5.85485 13.8879 5.94555C13.8996 6.03638 13.875 6.12117 13.8142 6.19992C13.7532 6.27298 13.6778 6.31805 13.5879 6.33513C13.4981 6.35221 13.4116 6.33027 13.3286 6.2693L12.1667 5.33825V10.9895C12.1667 11.3133 12.0511 11.5904 11.82 11.821C11.5888 12.0515 11.3108 12.1668 10.9863 12.1668H3.00689Z" fill="#1C1B1F"/>
</svg>
