<svg width="17" height="15" viewBox="0 0 17 15" fill="none" xmlns="http://www.w3.org/2000/svg">
<path d="M8.01812 14.2284L8.01854 14.2286C8.24165 14.3087 8.47286 14.3517 8.7093 14.3517C8.94552 14.3517 9.17688 14.3087 9.40056 14.2297L9.40112 14.2295C9.64801 14.1419 9.86721 14.0042 10.053 13.8203L11.079 12.8802C11.0793 12.88 11.0795 12.8797 11.0798 12.8795C12.3668 11.7078 13.5362 10.5316 14.587 9.35084C15.7081 8.09118 16.3032 6.69771 16.3032 5.18421C16.3032 3.97728 15.8931 2.93425 15.0667 2.10024L15.0666 2.10016C14.2398 1.26597 13.2034 0.85 12.0022 0.85C11.3089 0.85 10.6321 1.01205 9.9775 1.32429L9.97745 1.32431C9.51433 1.54526 9.09467 1.85419 8.71623 2.24118C8.33779 1.85419 7.91814 1.54526 7.45501 1.32431L7.45497 1.32429C6.80034 1.01205 6.1236 0.85 5.43032 0.85C4.22911 0.85 3.19267 1.26597 2.36585 2.10016L2.36577 2.10024C1.53942 2.93425 1.1293 3.97728 1.1293 5.18421C1.1293 6.68225 1.71477 8.06162 2.81833 9.30843C3.85216 10.4765 5.024 11.6625 6.33268 12.8666L6.33343 12.8673L7.37229 13.8202C7.55655 14.0026 7.77337 14.1404 8.01812 14.2284Z" stroke="#666666" stroke-width="1.3"/>
</svg>
