<svg width="36" height="36" viewBox="0 0 36 36" fill="none" xmlns="http://www.w3.org/2000/svg">
<path fill-rule="evenodd" clip-rule="evenodd" d="M7.92873 0.304688C5.9067 0.304687 3.96744 1.10774 2.53737 2.53726C1.1073 3.96677 0.303511 5.90573 0.302734 7.92776V28.2638C0.302734 30.2863 1.10619 32.226 2.53634 33.6562C3.96649 35.0863 5.90619 35.8898 7.92873 35.8898H28.2647C30.2868 35.889 32.2257 35.0852 33.6552 33.6551C35.0848 32.2251 35.8878 30.2858 35.8878 28.2638V7.92776C35.887 5.90623 35.0836 3.96773 33.6542 2.53829C32.2248 1.10886 30.2863 0.305464 28.2647 0.304688H7.92873ZM30.4582 7.93947C30.4582 8.522 30.2268 9.08067 29.8149 9.49258C29.403 9.90449 28.8443 10.1359 28.2618 10.1359C27.6793 10.1359 27.1206 9.90449 26.7087 9.49258C26.2968 9.08067 26.0654 8.522 26.0654 7.93947C26.0654 7.35694 26.2968 6.79827 26.7087 6.38636C27.1206 5.97445 27.6793 5.74304 28.2618 5.74304C28.8443 5.74304 29.403 5.97445 29.8149 6.38636C30.2268 6.79827 30.4582 7.35694 30.4582 7.93947ZM18.0997 12.0043C16.4841 12.0043 14.9347 12.6461 13.7924 13.7885C12.65 14.9308 12.0082 16.4802 12.0082 18.0958C12.0082 19.7113 12.65 21.2607 13.7924 22.403C14.9347 23.5454 16.4841 24.1872 18.0997 24.1872C19.7152 24.1872 21.2646 23.5454 22.407 22.403C23.5493 21.2607 24.1911 19.7113 24.1911 18.0958C24.1911 16.4802 23.5493 14.9308 22.407 13.7885C21.2646 12.6461 19.7152 12.0043 18.0997 12.0043ZM9.07673 18.0958C9.07673 15.7035 10.0271 13.4092 11.7186 11.7177C13.4102 10.0261 15.7045 9.07576 18.0967 9.07576C20.489 9.07576 22.7833 10.0261 24.4748 11.7177C26.1664 13.4092 27.1167 15.7035 27.1167 18.0958C27.1167 20.488 26.1664 22.7823 24.4748 24.4739C22.7833 26.1654 20.489 27.1158 18.0967 27.1158C15.7045 27.1158 13.4102 26.1654 11.7186 24.4739C10.0271 22.7823 9.07673 20.488 9.07673 18.0958Z" fill="#666666"/>
</svg>
