<svg width="37" height="37" viewBox="0 0 37 37" fill="none" xmlns="http://www.w3.org/2000/svg">
<path fill-rule="evenodd" clip-rule="evenodd" d="M5.68652 0.5625C4.32729 0.5625 3.02373 1.10245 2.0626 2.06358C1.10148 3.0247 0.561523 4.32827 0.561523 5.6875V31.3125C0.561523 32.6717 1.10148 33.9753 2.0626 34.9364C3.02373 35.8975 4.32729 36.4375 5.68652 36.4375H31.3115C32.6708 36.4375 33.9743 35.8975 34.9354 34.9364C35.8966 33.9753 36.4365 32.6717 36.4365 31.3125V5.6875C36.4365 4.32827 35.8966 3.0247 34.9354 2.06358C33.9743 1.10245 32.6708 0.5625 31.3115 0.5625H5.68652ZM8.5104 11.5736C9.32254 11.5736 10.1014 11.2509 10.6757 10.6767C11.25 10.1024 11.5726 9.32352 11.5726 8.51138C11.5726 7.69923 11.25 6.92035 10.6757 6.34608C10.1014 5.77181 9.32254 5.44919 8.5104 5.44919C7.69826 5.44919 6.91938 5.77181 6.3451 6.34608C5.77083 6.92035 5.44821 7.69923 5.44821 8.51138C5.44821 9.32352 5.77083 10.1024 6.3451 10.6767C6.91938 11.2509 7.69826 11.5736 8.5104 11.5736ZM11.0729 30.8333V13.9746H5.9479V30.8333H11.0729ZM14.4759 13.9746H19.6009V16.2322C20.3568 15.0483 22.0173 13.4544 25.1051 13.4544C28.79 13.4544 30.7913 15.8965 30.7913 20.5423C30.7913 20.7652 30.8118 21.7826 30.8118 21.7826V30.8308H25.6868V21.7851C25.6868 20.5423 25.4255 18.1003 22.6631 18.1003C19.8981 18.1003 19.665 21.1701 19.6009 23.1791V30.8308H14.4759V13.9746Z" fill="#666666"/>
</svg>
