<svg width="12" height="15" viewBox="0 0 12 15" fill="none" xmlns="http://www.w3.org/2000/svg">
<path d="M5.66671 13.5968V9.48763H3.50004C2.61768 9.48763 1.86935 9.18048 1.25504 8.56617C0.640596 7.95173 0.333374 7.20332 0.333374 6.32096C0.333374 5.58388 0.573235 4.9418 1.05296 4.39471C1.53268 3.84777 2.1256 3.43916 2.83171 3.16888C3.00157 2.15707 3.36643 1.40173 3.92629 0.902838C4.48615 0.403811 5.1774 0.154297 6.00004 0.154297C6.82268 0.154297 7.5174 0.403811 8.08421 0.902838C8.65101 1.40173 9.0124 2.15707 9.16838 3.16888C9.88518 3.40388 10.4808 3.80367 10.9552 4.36826C11.4296 4.93298 11.6667 5.58388 11.6667 6.32096C11.6667 7.20332 11.3595 7.95173 10.745 8.56617C10.1307 9.18048 9.3824 9.48763 8.50004 9.48763H6.33337V13.5968H10.8334C10.9284 13.5968 11.0077 13.6282 11.0713 13.691C11.1349 13.7537 11.1667 13.8319 11.1667 13.9255C11.1667 14.0193 11.1349 14.099 11.0713 14.1647C11.0077 14.2305 10.9284 14.2635 10.8334 14.2635H1.16671C1.07171 14.2635 0.992402 14.2321 0.928791 14.1693C0.86518 14.1065 0.833374 14.0283 0.833374 13.9345C0.833374 13.8408 0.86518 13.761 0.928791 13.6953C0.992402 13.6296 1.07171 13.5968 1.16671 13.5968H5.66671Z" fill="#1C1B1F"/>
</svg>
