<svg width="14" height="10" viewBox="0 0 14 10" fill="none" xmlns="http://www.w3.org/2000/svg">
<path d="M11.375 4.17012L10.4574 5.07327C10.3766 5.15396 10.2766 5.19674 10.1573 5.2016C10.038 5.20646 9.9331 5.16368 9.84258 5.07327C9.7581 4.98868 9.71585 4.88621 9.71585 4.76585C9.71585 4.64549 9.7581 4.54302 9.84258 4.45843L10.7513 3.54085L9.84258 2.63785C9.7581 2.55706 9.71585 2.45702 9.71585 2.33772C9.71585 2.21843 9.7581 2.11353 9.84258 2.02302C9.9331 1.9326 10.0371 1.88739 10.1545 1.88739C10.2719 1.88739 10.3758 1.9326 10.4663 2.02302L11.375 2.9317L12.278 2.01412C12.3588 1.92361 12.4588 1.87835 12.5781 1.87835C12.6974 1.87835 12.8023 1.92361 12.8928 2.01412C12.9833 2.10463 13.0285 2.20856 13.0285 2.32591C13.0285 2.44336 12.9833 2.54734 12.8928 2.63785L11.9897 3.54085L12.9017 4.45843C12.9885 4.54525 13.0313 4.6468 13.0302 4.76308C13.029 4.87936 12.9833 4.98275 12.8928 5.07327C12.8023 5.15775 12.6998 5.2015 12.5854 5.20451C12.471 5.20743 12.3685 5.16368 12.278 5.07327L11.375 4.17012ZM5.25 4.81966C4.68689 4.81966 4.20583 4.62016 3.80683 4.22116C3.40783 3.82226 3.20833 3.3412 3.20833 2.77799C3.20833 2.21488 3.40783 1.73383 3.80683 1.33483C4.20583 0.935828 4.68689 0.736328 5.25 0.736328C5.81311 0.736328 6.29417 0.935828 6.69317 1.33483C7.09217 1.73383 7.29167 2.21488 7.29167 2.77799C7.29167 3.3412 7.09217 3.82226 6.69317 4.22116C6.29417 4.62016 5.81311 4.81966 5.25 4.81966ZM0.875 8.37581V7.96514C0.875 7.6795 0.952583 7.41496 1.10775 7.17152C1.26292 6.92807 1.47029 6.74092 1.72988 6.61006C2.3064 6.32743 2.88803 6.11544 3.47477 5.97408C4.06151 5.83272 4.65325 5.76204 5.25 5.76204C5.84675 5.76204 6.43849 5.83272 7.02523 5.97408C7.61197 6.11544 8.1936 6.32743 8.77012 6.61006C9.02971 6.74092 9.23708 6.92807 9.39225 7.17152C9.54742 7.41496 9.625 7.6795 9.625 7.96514V8.37581C9.625 8.62178 9.53881 8.831 9.36644 9.00347C9.19406 9.17585 8.98484 9.26204 8.73877 9.26204H1.76123C1.51516 9.26204 1.30594 9.17585 1.13356 9.00347C0.961188 8.831 0.875 8.62178 0.875 8.37581Z" fill="#1C1B1F"/>
</svg>
