<svg width="33" height="33" viewBox="0 0 33 33" fill="none" xmlns="http://www.w3.org/2000/svg">
<path fill-rule="evenodd" clip-rule="evenodd" d="M32.5156 5.00727C32.5156 2.50935 30.4907 0.484375 27.9927 0.484375H5.00727C2.50935 0.484375 0.484375 2.50935 0.484375 5.00727V27.9927C0.484375 30.4907 2.50935 32.5156 5.00727 32.5156H27.9927C30.4907 32.5156 32.5156 30.4907 32.5156 27.9927V5.00727ZM27.0206 14.4546C24.954 14.4777 23.0283 13.853 21.3376 12.6958V20.8187C21.3376 24.4289 18.8663 27.5301 15.3719 28.34C10.6045 29.4277 6.56875 25.9795 6.05973 21.8603C5.52746 17.7409 8.15466 14.1307 12.1814 13.3207C12.9682 13.1587 14.1517 13.1587 14.7622 13.2976V17.6483C14.5744 17.6021 14.3984 17.5558 14.2133 17.5326C12.6396 17.2549 11.1155 18.0417 10.4906 19.4765C9.86581 20.9115 10.284 22.5776 11.5568 23.5497C12.6213 24.3828 13.8024 24.4984 15.0058 23.943C16.2092 23.4108 16.856 22.4388 16.9948 21.1197C17.0179 20.9347 17.0166 20.7263 17.0166 20.518V4.89692C17.0166 4.45725 17.0201 4.47643 17.4598 4.47643H20.9079C21.1626 4.47643 21.2552 4.51307 21.2783 4.81408C21.4633 7.49858 23.5015 9.78481 26.1165 10.132C26.3943 10.1782 26.6919 10.1966 27.0206 10.2197V14.4546Z" fill="#666666"/>
</svg>
