<svg width="10" height="8" viewBox="0 0 10 8" fill="none" xmlns="http://www.w3.org/2000/svg">
<path d="M1.55776 7.22096C1.30338 7.22096 1.11408 7.29964 0.989868 7.45701C0.865746 7.61424 0.716272 7.73032 0.541447 7.80524C0.393728 7.86016 0.266579 7.84095 0.16 7.74759C0.0533334 7.65423 0 7.51167 0 7.31989C0 7.17512 0.0392982 7.03678 0.117895 6.90486C0.196491 6.77307 0.319825 6.64375 0.487895 6.5169C0.552018 6.45795 0.680877 6.36583 0.874474 6.24053C1.06816 6.11523 1.30838 6.05259 1.59513 6.05259C2.04724 6.05259 2.35917 6.18243 2.53092 6.44211C2.70259 6.70179 2.95579 6.83163 3.29053 6.83163C3.62518 6.83163 3.87618 6.70179 4.04355 6.44211C4.21092 6.18243 4.52873 6.05259 4.99697 6.05259C5.46522 6.05259 5.78842 6.18243 5.96658 6.44211C6.14474 6.70179 6.40114 6.83163 6.73579 6.83163C7.07053 6.83163 7.3175 6.70179 7.47671 6.44211C7.63592 6.18243 7.94697 6.05259 8.40987 6.05259C8.63189 6.05259 8.84057 6.10452 9.03592 6.2084C9.23127 6.31227 9.40689 6.42562 9.56276 6.54845C9.71118 6.66232 9.82114 6.78515 9.89263 6.91693C9.96421 7.04872 10 7.18304 10 7.31989C10 7.50674 9.94754 7.64807 9.84263 7.74389C9.73772 7.83971 9.61136 7.86016 9.46355 7.80524C9.29215 7.73538 9.13965 7.62054 9.00605 7.46071C8.87246 7.30087 8.68285 7.22096 8.43724 7.22096C8.10592 7.22096 7.85491 7.3508 7.68421 7.61048C7.51351 7.87016 7.1957 8 6.73079 8C6.26588 8 5.94434 7.87016 5.76618 7.61048C5.58803 7.3508 5.33162 7.22096 4.99697 7.22096C4.66232 7.22096 4.41048 7.3508 4.24145 7.61048C4.07241 7.87016 3.75272 8 3.28237 8C2.81211 8 2.49211 7.87016 2.32237 7.61048C2.15263 7.3508 1.89776 7.22096 1.55776 7.22096ZM1.55776 4.19476C1.30873 4.19476 1.12079 4.27338 0.993947 4.43062C0.867105 4.58798 0.716272 4.70413 0.541447 4.77904C0.393728 4.83397 0.266579 4.81475 0.16 4.7214C0.0533334 4.62804 0 4.48547 0 4.2937C0 4.1488 0.0392982 4.01045 0.117895 3.87866C0.196491 3.74688 0.319825 3.61755 0.487895 3.4907C0.552018 3.43175 0.680877 3.33957 0.874474 3.21414C1.06816 3.08884 1.30838 3.0262 1.59513 3.0262C2.04724 3.0262 2.35917 3.15604 2.53092 3.41572C2.70259 3.6754 2.95579 3.80524 3.29053 3.80524C3.62518 3.80524 3.87618 3.6754 4.04355 3.41572C4.21092 3.15604 4.52873 3.0262 4.99697 3.0262C5.46522 3.0262 5.78842 3.15604 5.96658 3.41572C6.14474 3.6754 6.39847 3.80524 6.72776 3.80524C7.05706 3.80524 7.30404 3.6754 7.46868 3.41572C7.63325 3.15604 7.9443 3.0262 8.40184 3.0262C8.6886 3.0262 8.92965 3.09014 9.125 3.21803C9.32035 3.3458 9.45009 3.43915 9.51421 3.4981C9.68421 3.62794 9.80768 3.75681 9.88461 3.8847C9.96154 4.01246 10 4.1488 10 4.2937C10 4.48041 9.94619 4.62174 9.83855 4.71769C9.73092 4.81352 9.6032 4.83397 9.45539 4.77904C9.28408 4.70906 9.13294 4.59422 9.00197 4.43451C8.8711 4.27468 8.68285 4.19476 8.43724 4.19476C8.10592 4.19476 7.85491 4.3246 7.68421 4.58428C7.51351 4.84396 7.1957 4.9738 6.73079 4.9738C6.26588 4.9738 5.94434 4.84396 5.76618 4.58428C5.58803 4.3246 5.33162 4.19476 4.99697 4.19476C4.66232 4.19476 4.41316 4.3246 4.24947 4.58428C4.08588 4.84396 3.7689 4.9738 3.29855 4.9738C2.82829 4.9738 2.50425 4.84396 2.32645 4.58428C2.14864 4.3246 1.89241 4.19476 1.55776 4.19476ZM1.56276 1.16837C1.31715 1.16837 1.12838 1.24582 0.996447 1.40072C0.864518 1.55549 0.712851 1.66787 0.541447 1.73785C0.393728 1.79277 0.266579 1.77349 0.16 1.68001C0.0533334 1.58665 0 1.44662 0 1.25991C0 1.11501 0.0392982 0.977895 0.117895 0.848574C0.196491 0.719252 0.319825 0.591165 0.487895 0.464311C0.552018 0.405363 0.680877 0.313241 0.874474 0.187945C1.06816 0.0626486 1.30838 0 1.59513 0C2.04724 0 2.35917 0.129841 2.53092 0.389522C2.70259 0.649203 2.95579 0.779044 3.29053 0.779044C3.62518 0.779044 3.87618 0.649203 4.04355 0.389522C4.21092 0.129841 4.52873 0 4.99697 0C5.46522 0 5.78842 0.129841 5.96658 0.389522C6.14474 0.649203 6.39847 0.779044 6.72776 0.779044C7.05706 0.779044 7.30404 0.649203 7.46868 0.389522C7.63325 0.129841 7.9443 0 8.40184 0C8.6886 0 8.92965 0.0638821 9.125 0.191645C9.32035 0.319538 9.45009 0.412958 9.51421 0.471905C9.68421 0.601746 9.80768 0.730548 9.88461 0.858312C9.96154 0.986205 10 1.12254 10 1.26731C10 1.45415 9.94619 1.59548 9.83855 1.6913C9.73092 1.78726 9.6032 1.80771 9.45539 1.75265C9.28408 1.6828 9.13294 1.56796 9.00197 1.40812C8.8711 1.24829 8.68285 1.16837 8.43724 1.16837C8.10592 1.16837 7.85491 1.29821 7.68421 1.55789C7.51351 1.81757 7.1957 1.94741 6.73079 1.94741C6.26588 1.94741 5.94434 1.81757 5.76618 1.55789C5.58803 1.29821 5.33162 1.16837 4.99697 1.16837C4.66232 1.16837 4.41316 1.29821 4.24947 1.55789C4.08588 1.81757 3.7689 1.94741 3.29855 1.94741C2.82829 1.94741 2.50509 1.81757 2.32895 1.55789C2.15281 1.29821 1.89741 1.16837 1.56276 1.16837Z" fill="#1C1B1F"/>
</svg>
