<svg width="33" height="33" viewBox="0 0 33 33" fill="none" xmlns="http://www.w3.org/2000/svg">
<path fill-rule="evenodd" clip-rule="evenodd" d="M4.04345 32.5156H28.9566C30.9221 32.5156 32.5156 30.9221 32.5156 28.9566V4.04341C32.5156 2.07793 30.9221 0.484375 28.9566 0.484375H4.04341C2.07793 0.484375 0.484375 2.07793 0.484375 4.04345V28.9566C0.484375 30.9221 2.07793 32.5156 4.04345 32.5156ZM9.26482 25.4287L15.1333 18.6208L19.901 25.4287H25.6289L18.2574 14.9028L24.6279 7.57129H22.8394L17.4527 13.7537L13.1791 7.65137H7.45117L14.3288 17.472L7.45117 25.4287H9.26482ZM20.5835 23.9212H22.8641L12.4966 9.15884H10.216L20.5835 23.9212Z" fill="#666666"/>
</svg>
