<svg width="33" height="27" viewBox="0 0 33 27" fill="none" xmlns="http://www.w3.org/2000/svg">
<path d="M32.2841 3.86375C31.8741 2.42875 30.8491 1.40375 29.4141 0.993746C25.1091 0.583746 20.8041 0.173746 16.4991 0.378746C12.1941 0.378746 7.88905 0.583746 3.58405 0.993746C2.35405 1.40375 1.12405 2.63375 0.714051 3.86375C-0.105204 10.261 -0.105204 16.7365 0.714051 23.1337C1.12405 24.5687 2.14905 25.5937 3.58405 26.0037C7.88905 26.4137 12.1941 26.8237 16.4991 26.6187C20.8041 26.6187 25.1091 26.4137 29.4141 26.0037C30.8491 25.5937 31.8741 24.5687 32.2841 23.1337C33.1033 16.7365 33.1033 10.261 32.2841 3.86375ZM12.3991 19.6487V7.34875L23.0591 13.4987L12.3991 19.6487Z" fill="#666666"/>
</svg>
