<svg xmlns="http://www.w3.org/2000/svg" viewBox="0 0 164.31 159.15"><defs><style>.cls-1{fill:#7f3de8;}.cls-2{fill:#ffc639;}.cls-3{fill:#fff;}.cls-4{stroke:#000;stroke-miterlimit:10;stroke-width:0.25px;}</style></defs><g id="Layer_2" data-name="Layer 2"><g id="OBJECTS"><path class="cls-1" d="M108.67,115.86c-3.75-1.33-8.55-.88-12.59-.91q-10-.08-20-.57-10.2-.51-20.33-1.5c-6.1-.6-12.41-1.89-18.57-2C27.77,110.75,18,118,25.43,124.36c3.72,3.15,10.31,3.09,15.55,3.53q10.23.86,20.5,1.52,11.9.76,23.8,1.29c6.33.28,13.75,1.29,20,.36C116.2,129.46,118.53,118.37,108.67,115.86Z"/><path class="cls-2" d="M36.75,90.22c3.59-8.57,10.5-14.65,18-19.87,8.69-6.08,18.58-10.68,26-18.44a50.41,50.41,0,0,0,8.82-13.5c1.36-2.85,2.41-5.91,3.64-8.85a33.07,33.07,0,0,0-12.34.94,3.66,3.66,0,0,0-.17-.53c-.84-2-1.94-4-2.89-6-1.7-3.53-3.34-7.1-5.08-10.6C70.24,8.37,67.37.18,60.63,0c-6.26-.15-10,7.62-12.13,12.35-3,6.5-2.44,13.87-6.17,20.18C32.26,49.54,10.41,54,2.9,73.37c-3.54,9.16-4.71,19.84,1.54,28.15,6.69,8.9,18.12,11.78,29.43,13.15C32.1,107,34,96.71,36.75,90.22Z"/><path class="cls-2" d="M159.9,43.67c-1.46-4-3.17-8-4.94-12-2.89-6.57-3.22-24.43-13.44-22.56A28.24,28.24,0,0,0,129.42,15a52,52,0,0,0-9.62,10.31c-1.26,1.72-2.28,3.7-3.62,5.34-2.39,2.91-5.2,1.86-8.56,1.25-2.39-.43-4.88-.92-7.41-1.36-2.59,9-7.28,17.15-7.5,26.88s4.7,17.11,8.27,25.69a45,45,0,0,1,2.78,25.73,63.93,63.93,0,0,1-2.39,9.18q3-.06,6-.17c12.65-.47,26.39-1.76,37.19-9,12.42-8.36,18.34-24.55,19.56-38.92C164.93,60.57,162.94,52,159.9,43.67Z"/><path class="cls-3" d="M101,83.07c-3.57-8.58-8.5-16-8.27-25.69s4.91-17.84,7.5-26.88c-1-.17-2-.33-2.95-.47L96.73,30c-1.19-.17-2.37-.3-3.56-.4-1.23,2.94-2.28,6-3.64,8.85a50.41,50.41,0,0,1-8.82,13.5c-7.42,7.76-17.31,12.36-26,18.44-7.46,5.22-14.37,11.3-18,19.87C34,96.71,32.1,107,33.87,114.67c5.68.68,11.34,1,16.36,1.46A430.05,430.05,0,0,0,101.37,118a63.93,63.93,0,0,0,2.39-9.18A45,45,0,0,0,101,83.07Z"/><path d="M80.14,73.14c-9.39-7.36-31.57-6.73-36.65,3.23a9.83,9.83,0,0,0,1.79,11.39,16.76,16.76,0,0,0,8.09,4.51c9,2.39,26.64,4.06,30.37-7.4A10.54,10.54,0,0,0,80.14,73.14Z"/><path class="cls-3" d="M53.65,73.55c-2.86,0-2.87,4.45,0,4.45S56.52,73.55,53.65,73.55Z"/><path class="cls-3" d="M60.63,71.34a1.92,1.92,0,1,0,1.91,1.91A1.93,1.93,0,0,0,60.63,71.34Z"/><path class="cls-3" d="M59.89,79.67c-3,0-3,4.69,0,4.69S62.91,79.67,59.89,79.67Z"/><path class="cls-3" d="M96.74,53.56a14.35,14.35,0,0,1,14.71-7.92,15.73,15.73,0,0,1,13.47,13.15c1.67,12.05-13.31,17.36-22.66,11.18C96.7,66.29,94,59.64,96.74,53.56Z"/><path class="cls-3" d="M47,46.9A11.26,11.26,0,0,1,60.8,42.23a13,13,0,0,1,7.83,9.43,9.89,9.89,0,0,1-4.75,10.26,12.3,12.3,0,0,1-12.12.52,11.4,11.4,0,0,1-6.21-11.65A10.61,10.61,0,0,1,47,46.9Z"/><path d="M101.57,53.08A11.09,11.09,0,0,1,113,47a12.18,12.18,0,0,1,10.42,10.18c1.3,9.32-10.3,13.43-17.53,8.65C101.53,62.93,99.42,57.79,101.57,53.08Z"/><path d="M62.22,44c-4.3-3.83-11.78-2.21-14.66,2.6a8.61,8.61,0,0,0-1.12,3.14,9.18,9.18,0,0,0,5,9.37,9.92,9.92,0,0,0,9.77-.41c4.55-2.88,5.29-9.26,2.14-13.47A7.82,7.82,0,0,0,62.22,44Z"/><path class="cls-3" d="M71,29.56c.18-.38-4.31-19.94-11.69-19.59-5.61.27-5.7,17.48-6.29,21.32C52.07,37.32,68.33,34.94,71,29.56Z"/><path class="cls-3" d="M146,29.57a45.57,45.57,0,0,0-2.73-10,6.81,6.81,0,0,0-2.07-3.1c-1.73-1.24-3.49-.18-4.61,1.27-3.56,4.6-5.79,10.58-8.41,15.75a4.84,4.84,0,0,0-.59,1.67c-.4,5,10.38,4.82,13.37,5.06,3.37.27,5.83-.81,5.66-4.45A53.79,53.79,0,0,0,146,29.57Z"/><path class="cls-4" d="M88.14,149.81a2.46,2.46,0,0,0-3-1.7l-3.61,1-1.43-5.08c4.71-2.15,7.52-6.42,6.47-10.34A7.22,7.22,0,0,0,83,129.35,18.83,18.83,0,0,0,80.44,111a5.69,5.69,0,0,0,.44-1.3,5.74,5.74,0,0,0-9.61-5.29,5.74,5.74,0,0,0-11.37,0l-.07,0a6.22,6.22,0,0,0-.85-.76,5.74,5.74,0,0,0-8.48,7.26,18.84,18.84,0,0,0-2.62,18.42,7.22,7.22,0,0,0-3.56,4.36c-1.06,3.94,1.78,8.23,6.53,10.37l-3.37,11.8a2.47,2.47,0,0,0,1.69,3.05,2.65,2.65,0,0,0,.68.09,2.45,2.45,0,0,0,2.36-1.78l.58-2,3.6,1a2.59,2.59,0,0,0,.68.09,2.46,2.46,0,0,0,.67-4.82l-3.6-1,1.46-5.12c.51,0,1,.07,1.49.07,3.55,0,6.67-1.33,8.34-3.59,1.67,2.26,4.79,3.59,8.34,3.59.51,0,1,0,1.55-.08l3.36,11.86A2.45,2.45,0,0,0,81,159a2.52,2.52,0,0,0,.67-.09,2.46,2.46,0,0,0,1.7-3l-.57-2,3.6-1A2.45,2.45,0,0,0,88.14,149.81Zm-26.4-11.43c-.32,1.22-2.32,2.14-4.65,2.14a10.38,10.38,0,0,1-2.62-.35,8.85,8.85,0,0,1-4.61-2.82,3,3,0,0,1-.79-2.37c.33-1.22,2.33-2.14,4.65-2.14a10,10,0,0,1,2.62.36C60.21,134.23,62.13,137,61.74,138.38Zm3.69-4.55a13.26,13.26,0,0,0-7.82-5.39,15.2,15.2,0,0,0-3.89-.52c-.37,0-.73,0-1.09,0a13.93,13.93,0,0,1,1.77-14,5.75,5.75,0,0,0,6.89-4.8l.07,0a5.74,5.74,0,0,0,8.2.25,5.75,5.75,0,0,0,7.08,4.8A13.95,13.95,0,0,1,78.23,128c-.36,0-.72,0-1.09,0a15.28,15.28,0,0,0-3.9.52A13.27,13.27,0,0,0,65.43,133.83Zm11,6.34a10.38,10.38,0,0,1-2.62.35c-2.33,0-4.33-.92-4.66-2.14-.38-1.42,1.54-4.15,5.41-5.18a9.9,9.9,0,0,1,2.62-.36c2.32,0,4.32.92,4.65,2.14a3,3,0,0,1-.79,2.37A8.85,8.85,0,0,1,76.39,140.17Z"/></g></g></svg>