<svg xmlns="http://www.w3.org/2000/svg" viewBox="0 0 162.11 169.69"><defs><style>.cls-1{fill:#7f3de8;}.cls-2{fill:#ffc639;}.cls-3{fill:#fff;}.cls-4{fill:none;stroke:#000;stroke-linecap:round;stroke-linejoin:round;stroke-width:3.43px;}.cls-5{fill:#e5579b;}</style></defs><g id="Layer_2" data-name="Layer 2"><g id="OBJECTS"><path class="cls-1" d="M156,122a7.37,7.37,0,0,0-1.11-2,4,4,0,0,0-4.85-2.88,7,7,0,0,0-7.46,3.59l-.11.18c-1.13.62-2.26,1.26-3.4,2-3.27,2.06-6.57,4-10,5.86a118.7,118.7,0,0,1-21.19,8.84c-6.44,1.94-15,2.27-18.81,8.83-3.64,6.34-.43,16.7,5.43,20.66s13.27,2.71,19.75.82c8.35-2.43,17-4.53,25.13-7.66,7-2.69,13.73-6.89,17.23-13.77C160.65,138.53,158.87,130,156,122Z"/><path d="M112.05,155.67a5.16,5.16,0,0,0-6.58,8,5.4,5.4,0,0,0,3.78,1.16,5.33,5.33,0,0,0,3.49-1.85,5.16,5.16,0,0,0-.69-7.27Z"/><path d="M132.53,146.17a5.51,5.51,0,0,0-5.5.52,5.42,5.42,0,0,0-2.25,4.95,6,6,0,0,0,1.08,2.89,5.18,5.18,0,0,0,2,1.68,5.09,5.09,0,0,0,2.69.46,6,6,0,0,0,2.84-1.1,5.59,5.59,0,0,0,2.25-5A5.49,5.49,0,0,0,132.53,146.17Z"/><path d="M151.6,135.7a4.52,4.52,0,0,0-3.24-1,4.43,4.43,0,0,0-3.61,2.55l-.08.12c-.11.37-.22.73-.34,1.09a3.28,3.28,0,0,0,.09,1.76,4.22,4.22,0,0,0,1.44,2.41,5.35,5.35,0,0,0,2,1,4.36,4.36,0,0,0,3.34-.76l.11-.1a4.43,4.43,0,0,0,1.83-4A4.57,4.57,0,0,0,151.6,135.7Z"/><path class="cls-2" d="M162.05,95.68c.59-16.48-2.9-34-3.81-49.24-.49-8.19-1.15-16.86-5.91-23.83-3.86-5.68-10.78-10.27-16-3.63A94.22,94.22,0,0,0,128,31.44a44.12,44.12,0,0,0-2.82,5.43c.5-1.3-16.91-3.57-18.54-3.63-6.37-.2-13-.31-19.06,1.77-3.46-4.77-6.5-10.14-10.35-14.58-4.44-5.09-12.4-8.68-16.63-1.26-3,5.33-2.3,11.3-1.74,17.12.65,6.68,1.5,13.65,2.37,20.43C62,63.17,62,68.55,56.91,73.3,50.76,79,43.79,84,37.29,89.26c-6.16,5-12.3,9.92-15.56,17.34-3,6.76-3.45,14.67-4.09,22-.68,7.75-.94,16.14,1.83,23.53,2.36,6.3,7.75,11.65,15,10.73,6.54-.84,10.34-5.64,12.84-11.12,4.68,8.72,14.86,15.63,24,12.43a33.57,33.57,0,0,0,14-9.46c2.57,3.92,7.35,6.77,12,4.94,4.9-1.94,9.57-7.07,12.22-12.83a12.69,12.69,0,0,0,3.41,2.64c5.25,2.69,11.29,0,15.72-3.09a31.48,31.48,0,0,0,11.34-15l0-.07a7.82,7.82,0,0,0,2.82.93c6.79.86,11.28-6.09,13.77-11.35C160.24,113.05,161.73,104.51,162.05,95.68Z"/><path class="cls-3" d="M81.42,69.59A9.31,9.31,0,0,0,79.26,64a10.27,10.27,0,0,0-2-2.05,10.46,10.46,0,0,0-11-.82c-7.77,4-6.65,16.12,1.62,18.78a10.6,10.6,0,0,0,11.91-4A10.11,10.11,0,0,0,81.42,69.59Z"/><path d="M77.86,69.8a6.07,6.07,0,0,0-1.41-3.63,7,7,0,0,0-1.27-1.34A6.82,6.82,0,0,0,68,64.3c-5.06,2.61-4.33,10.49,1,12.22a6.91,6.91,0,0,0,7.75-2.61A6.59,6.59,0,0,0,77.86,69.8Z"/><path class="cls-3" d="M120.8,74.09a11.46,11.46,0,0,0-2.63-6.83,13,13,0,0,0-2.4-2.51c-3.75-3-9.34-3.16-13.52-1-9.51,4.91-8.14,19.74,2,23a13,13,0,0,0,14.58-4.91A12.23,12.23,0,0,0,120.8,74.09Z"/><path d="M116,74.38a6.8,6.8,0,0,0-1.58-4.1A7.92,7.92,0,0,0,113,68.77a7.69,7.69,0,0,0-8.11-.6C99.14,71.12,100,80,106,82a7.81,7.81,0,0,0,8.75-3A7.35,7.35,0,0,0,116,74.38Z"/><path class="cls-4" d="M58.43,144c3.74-1.94,19.15-3.81,30.87-2"/><path d="M62.12,105.74C59,100,51.65,96.64,45.42,95.67a16.88,16.88,0,0,0-1.75-.46,26.81,26.81,0,0,0-18,2.34c-6.42,3.48-10,11.21-5,17.5,8.18,10.25,25.34,11.79,36.12,5.28C61.84,117.28,65.27,111.49,62.12,105.74Z"/><path class="cls-3" d="M31.4,99.29a1.92,1.92,0,0,0-.24,3.82A1.92,1.92,0,0,0,31.4,99.29Z"/><path class="cls-3" d="M41,97.54c-3-.19-3.32,4.51-.29,4.71S44,97.73,41,97.54Z"/><path class="cls-3" d="M38.42,105.7l-.24-.33a2.94,2.94,0,0,0-4.14-.26c-1,1-1.45,3-.26,4.13l.3.28a3.13,3.13,0,0,0,2,1,2.89,2.89,0,0,0,2.35-4.8Z"/><path class="cls-4" d="M64.49,52.16c.45-.7,9.32-7.19,23.66,2.3,10.4,7.36,24.54-9.87,43.45,2.31"/><path class="cls-3" d="M67.9,22.07a2.12,2.12,0,0,0-3.27,1.61A96,96,0,0,0,65.73,41a2.22,2.22,0,0,0,2,1.75c3.42.32,6.21-2.3,8.54-4.5,3.11-3,2-5.91-.34-9A33.27,33.27,0,0,0,67.9,22.07Z"/><path class="cls-3" d="M144.4,25a3.51,3.51,0,0,0-1.3-.77c-3.57-1.09-7.3,10-8.3,12.45-.69,1.73-1.32,3.65-.72,5.41a7.35,7.35,0,0,0,2.8,3.31,27.87,27.87,0,0,0,5.49,3.19,6.34,6.34,0,0,0,3.57.71,4.61,4.61,0,0,0,3.14-2.56C152.11,40.7,149.37,29.5,144.4,25Z"/><path class="cls-5" d="M42.76,5.17a12.71,12.71,0,0,0-16.2-3.65c-2.51,1.4-4.87,3.78-5.51,6.65-.71,3.16.68,4.88,3.29,6.18.79.4,2-.27,1.63-1.25-.61-1.7,1-4.2,2.52-4.89a6,6,0,0,1,5,.34c3,1.65,2.77,5.16.77,7.49-2.92,3.39-6.11,6.13-6,11a55.56,55.56,0,0,0,1.26,8c.52,3,.84,5.22,2.72,7.66,2.26,2.93,6.69.88,7.65-2,1.21-3.65-.44-8.15-1-11.86-.49-3,.91-3.75,2.8-6C45.94,17.78,46.85,10.72,42.76,5.17Z"/><path class="cls-5" d="M42.27,50.72a5.4,5.4,0,0,0-3.66-1.52A5.34,5.34,0,0,0,35,50.72a3.84,3.84,0,0,0-1.07,1.66,3.82,3.82,0,0,0-.45,2A5.25,5.25,0,0,0,35,58a5.19,5.19,0,0,0,7.32,0,4,4,0,0,0,1.07-1.67,3.9,3.9,0,0,0,.44-2A5.24,5.24,0,0,0,42.27,50.72Z"/><path class="cls-5" d="M13.31,35.65A9.23,9.23,0,0,0,1.6,38.49,7.88,7.88,0,0,0,.16,44.58c.56,2.29,2,3,4.13,3,.64,0,1.19-.81.65-1.33-.94-.91-.7-3.06.08-4a4.33,4.33,0,0,1,3.36-1.39c2.51.09,3.46,2.46,2.91,4.61-.81,3.15-2,6-.34,9.11a40.94,40.94,0,0,0,3.38,4.79c1.3,1.76,2.23,3.12,4.24,4.1,2.41,1.18,4.62-1.58,4.32-3.77C22.5,56.91,20,54.52,18.4,52.3c-1.28-1.81-.61-2.74-.1-4.8C19.43,42.83,17.75,37.94,13.31,35.65Z"/><path class="cls-5" d="M27.64,65.41a3.75,3.75,0,0,0-4.76,2.36,2.76,2.76,0,0,0-.16,1.42,2.79,2.79,0,0,0,.35,1.44,3.79,3.79,0,0,0,2.16,1.89A3.75,3.75,0,0,0,30,70.17a2.8,2.8,0,0,0,.16-1.43,2.84,2.84,0,0,0-.35-1.44A3.79,3.79,0,0,0,27.64,65.41Z"/><path d="M97.89,15.8a2.73,2.73,0,0,0-4,3c.54,3.28,2.28,6.2,2.6,9.56s-1.13,6.16-1.08,9.34a1.65,1.65,0,0,0,2.08,1.58C105.76,36.07,105.74,19.48,97.89,15.8Z"/><path d="M111.68,14.91c-1.07-1.44-4-1.68-4.35.57-.66,3.9-.14,7.9-.94,11.78-.75,3.61-2.93,6.82-3.33,10.41a1.65,1.65,0,0,0,2.07,1.59C113.36,36.62,116.47,21.37,111.68,14.91Z"/><path d="M120.62,20.44a2.45,2.45,0,0,0-4.18,0c-1.48,2.46-1.29,5.59-1.9,8.34a37.25,37.25,0,0,1-2.31,8,1.56,1.56,0,0,0,.55,2.09l.3.19A1.9,1.9,0,0,0,115,39c2.78-1.47,4.34-5.29,5.28-8.12C121.38,27.67,122.4,23.58,120.62,20.44Z"/></g></g></svg>